<?xml version="1.0" encoding="utf-8"?>
<!-- Generator: Adobe Illustrator 27.1.1, SVG Export Plug-In . SVG Version: 6.00 Build 0)  -->
<svg version="1.1" id="Logo" xmlns="http://www.w3.org/2000/svg" xmlns:xlink="http://www.w3.org/1999/xlink" x="0px" y="0px"
	 viewBox="0 0 1000 1000" style="enable-background:new 0 0 1000 1000;" xml:space="preserve">
<style type="text/css">
	.st0{fill:none;}
</style>
<g>
	<path class="st0" d="M769.47,668.56c4.16-0.3,6.34,2.62,7.42,5.99c0.23,5.56-2.4,7.69-6.39,8.02c-2.31,0.19-4.61-0.02-6.14-1.4
		l-4.79,14.53c-1.48,4.82-2.72,9.38-3.7,13.67c-0.99,4.3-1.48,8.32-1.48,12.06c0,8.04,2.22,14.47,6.66,19.29
		c4.44,4.82,10.36,7.24,17.77,7.24c11.18,0,22.73-4.56,34.64-13.66c0.01-0.3,0.02-0.61,0.04-0.93c0.35-5.17,3.21-7.96,7.98-7.13
		c0.38,0.07,0.75,0.16,1.11,0.27c3.52-3.32,7.07-7.02,10.65-11.11c2.31-2.64,4.6-5.48,6.86-8.49c-0.01-0.29-0.01-0.58,0-0.89
		c0.18-4.57,2.3-8.05,6.56-8.5c11.52-17.6,22.41-40.28,32.66-68.06c0.03-1.97-0.05-3.9-0.24-5.76c-1.38,0.91-3.26,1.19-5.18,1.28
		c-3.95-0.24-7.07-1.75-6.85-6.68c0.2-4.33,2.62-7.28,6.66-7.35c1.01-0.02,1.93,0.12,2.76,0.39c-1.97-6.08-4.51-10.88-6.21-13.7
		c-6.22-10.31-16.78-14.56-27.27-17.62c-10.1-2.94-20.63-1.41-31.29,4.54c-2.89,1.61-6.46,3.83-10.13,6.65
		c-0.72,2.99-2.76,4.37-5.55,4.73c-1.9,1.8-3.75,3.77-5.47,5.91l-22.05,66.83C768.8,668.63,769.13,668.58,769.47,668.56z
		 M776.62,735.41c-0.49,4.97-4.14,7-8.49,7.46c-5.02-0.89-6.47-4.7-6.17-9.44c0.32-5.18,3.2-8,7.98-7.21
		C774.46,726.98,777.1,730.56,776.62,735.41z M848.77,653.8c-5.18,0.03-8.41-1.73-8.5-7.19c-0.06-3.99,2.07-6.28,5.69-6.1
		c4.05,0.2,8.28,1.34,8.86,6.53C855.34,651.8,851.92,653.38,848.77,653.8z M845.9,582.77c4.04,0.12,8.37,1.21,8.86,6.57
		c0.44,4.91-2.37,7.91-6.96,8.86c-4.65-0.22-7.18-3.09-7.71-7.95C839.59,585.69,841.49,582.64,845.9,582.77z M820.73,684.68
		c-4.76,0.46-7.49-2.37-7.21-7.63c0.24-4.74,2.52-8.36,7.18-8.45c4.59-0.09,6.94,3.26,7.7,8.1
		C828.03,681.8,824.99,684.27,820.73,684.68z M813.56,618.68c0.57-4.68,3-8.16,7.73-7.77c4.55,0.38,6.72,3.83,7.11,8.61
		c-0.84,5.07-4.01,7.42-8.27,7.48C815.32,627.07,812.94,623.82,813.56,618.68z M787.19,646.13c0.3-4.29,2.51-7.12,6.75-6.76
		c4.47,0.38,6.92,3.39,7.63,8.25c-0.33,4.79-3.32,6.15-7.15,6.13C789.85,653.73,786.82,651.55,787.19,646.13z M786.86,705
		c0.31-4.88,2.41-8.45,7.49-7.83c4.55,0.56,6.85,3.89,7.39,8.77c-0.62,5.2-3.84,7.56-8.17,7.62
		C788.6,713.63,786.54,710.04,786.86,705z"/>
	<path class="st0" d="M555.48,165.46c-0.07-0.62-0.08-1.29-0.04-2.03c0.27-4.13,2.84-5.79,6.31-5.32c3.98,0.53,8.2,1.63,8.18,7.2
		c-0.01,1.83-0.53,3.09-1.32,3.96c7.47,2.76,14,6.34,19.57,10.73c11.01,8.68,21.35,20.32,31.05,34.94c2.6,0.7,4.29,2.71,4.3,6.25
		c6.03-6.9,12.5-13.17,19.4-18.83c-0.4,0.06-0.82,0.11-1.26,0.12c-4.79,0.11-8.99-1.95-8.45-8.15c0.43-4.86,2.45-9.6,7.98-9.36
		c4.64,0.2,8.45,2.45,8.88,8.36c-0.23,1.63-0.62,3.11-1.21,4.38c11.26-8.37,23.6-15.22,37.02-20.52c9.28-3.66,18.4-6.63,27.36-8.9
		c-0.22-0.6-0.38-1.26-0.48-1.98c-0.72-5.31,2.38-8.41,6.87-9.2c-6.15-5.55-12.88-10.43-20.14-14.59c-0.98,1.3-2.5,2.1-4.76,2.07
		c-3.85-0.05-6.65-2.52-6.63-7.12c0-0.23,0.02-0.44,0.03-0.66c-14.2-6.16-29.94-9.28-46.84-9.28c-14.46,0-29.56,2.36-45.12,7
		c0.21,0.77,0.35,1.59,0.44,2.47c-0.77,5.17-3.98,7.55-8.32,7.54c-3.71-0.01-5.72-2.07-6.36-5.17c-3.06,1.17-6.14,2.42-9.23,3.76
		c-12,5.2-23.18,11.85-33.47,19.88C545,163.53,550.41,164.35,555.48,165.46z M668.21,157.11c4.62-0.08,7.51,3.02,7.92,7.91
		c0.45,5.33-3.1,7.43-7.13,8.7c-5.2,0.25-7.25-3.03-7.5-7.94C661.24,160.79,663.27,157.2,668.21,157.11z M640.28,129.25
		c3.96-0.12,7.93,0.62,8.8,6.18c-0.61,4.52-2.36,8.32-6.8,9.17c-5.08,0.97-6.99-2.72-7.39-7.45
		C634.52,132.92,635.83,129.38,640.28,129.25z M615.21,156.95c4.57,0.14,7.09,3.33,7.98,8.28c-0.17,5.15-3.22,7.67-7.55,8.12
		c-4.95,0.52-7.34-2.73-7.3-7.86C608.37,160.68,610.11,156.8,615.21,156.95z"/>
	<path class="st0" d="M379.84,772.51c-0.62-1.09-0.86-2.51-0.55-4.36c0.47-2.83,1.83-4.84,3.81-5.79l13.68-41.63
		c-0.91,0.07-1.91-0.14-2.99-0.62c-3.8-1.71-5.31-5.03-3.9-9.24c1.3-3.89,4.37-4.35,7.6-3.21c1.31,0.46,2.27,1.11,2.95,1.91
		l36.61-111.4c-2.75-1.54-3.23-4.46-2.01-8.11c1.53-3.13,3.07-6.71,6.7-6.14l13.22-40.24c-0.75-0.03-1.52-0.12-2.33-0.32
		c-4.17-1.03-5.3-4.29-4.21-8.5c2.03-4.56,4.38-8.82,9.78-6.77c0.59,0.23,1.12,0.53,1.6,0.86l13.8-42c-1.73,1.51-4.2,1.65-6.98,0.72
		c-4.39-1.47-6.5-4.62-5.59-9.27c2.23-4.93,5.5-7.26,9.89-6.04c3.55,0.98,5.06,3.67,5.21,6.87l6.55-19.92l26.71-90.89
		c2.29-7.77,4.82-15.13,7.55-22.1c0.06-0.51,0.12-1.02,0.17-1.51c1.09-10.72,0.82-19.63-0.81-26.75c-1.55,3.62-4.66,5.6-8.52,4.54
		c-5.73-1.59-7.2-6.5-5.82-12.36c1.06-4.49,3.5-7.11,8.03-6.36c-1.4-1.79-2.98-3.29-4.72-4.49c-4.7-3.21-9.99-4.82-15.92-4.82
		c-7.95,0-15.83,1.73-23.66,5.16c-0.05,0.36-0.12,0.73-0.2,1.09c-1.22,5.25-5.12,5.91-9.28,4.68c-0.28-0.08-0.56-0.18-0.82-0.27
		c-5.24,3.31-10.45,7.4-15.63,12.26c-16.29,15.27-29.87,34.97-40.71,59.09l-40.92,126.35c0.22,1.47,0.03,3.15-0.3,4.85
		c-0.65,2.19-1.59,3.87-2.86,4.89l-13.83,42.71c3.27,2.41,5.85,5.33,4.44,9.94c-1.47,4.81-5.06,5.89-9.08,4.4l-8.34,25.75
		L300.75,687c0.48,1.05,0.78,2.22,0.93,3.42c-0.49,3.48-1.85,5.36-3.79,6.15l-12.84,42.89c0.16,0.05,0.31,0.09,0.47,0.15
		c4.31,1.71,6.24,5.78,4.89,10.43c-1.38,4.76-5.33,5.98-9.67,5.51c-0.16-0.07-0.29-0.15-0.44-0.22l-9.48,31.67
		c-1.15,3.61-2.11,7.12-2.91,10.53c1.26-1.71,3.2-2.54,5.75-1.96c5.05,1.14,6.94,5.28,6.8,10.45c-0.96,4.65-3.73,6.94-7.65,6.24
		c-3.85-0.69-5.96-3.13-6.49-6.55c-1.36,8.74-1.43,16.7-0.19,23.79c2.07,11.79,6.22,21.33,12.34,28.35
		c6.12,7.01,13.95,11.81,23.27,14.25c1.58,0.41,3.17,0.75,4.77,1.02c-0.48-1.32-0.5-2.9-0.03-4.8c0.99-4,3.79-5.11,7.12-3.94
		c3.82,1.34,7.73,3.37,6.77,8.78c-0.03,0.16-0.07,0.3-0.1,0.45c3.44-0.32,6.88-0.96,10.33-1.94c9.68-2.75,18.84-8.5,27.2-17.09
		c5.66-5.81,10.41-13.06,14.2-21.66c-2.46-1.31-3.71-3.84-3.36-7.28c0.4-3.96,2.89-5.7,6.53-5.17c0.46,0.07,0.88,0.17,1.29,0.28
		c0.1-0.34,0.21-0.68,0.31-1.02l2.06-7c-0.61-2.09-1.16-4.24-1.59-6.51C375.32,796.45,376.2,785.21,379.84,772.51z M393.43,623.47
		c-0.45,4.91-3.76,7.25-8.42,7.2c-4.52-1.21-6.48-4.56-6.12-9.44c0.33-4.58,2.75-7.16,7.05-6.09
		C389.87,616.13,393.92,618.11,393.43,623.47z M395.7,577.7c-1.02,4.78-3.6,7.69-8.37,6.24c-3.74-1.13-5.99-4.09-4.81-8.53
		c1.24-4.66,4.54-6.61,8.94-6.46C395.77,570.22,396.58,573.56,395.7,577.7z M396.94,520.37c1.92-4.35,3.95-8.87,9.48-7.19
		c3.8,1.16,5.55,4.7,4.84,8.78c-0.96,5.56-4.64,7.69-9.61,6.7C397.47,527.84,395.98,524.84,396.94,520.37z M414.05,658.12
		c-0.87,4.91-4.59,5.02-8.31,4.38c-3.83-1.08-6.62-3.23-5.51-8.01c0.98-4.2,3.88-6.58,7.86-5.79
		C412.64,649.6,414.92,653.24,414.05,658.12z M424.43,601.98c-1.25,4.58-4.61,7.02-8.99,6.15c-5.66-1.13-6.23-5.83-5.05-10.87
		c1.06-4.5,4.03-5.74,8.12-4.42C422.1,594.59,425.9,596.56,424.43,601.98z M428.25,556.91c-0.9,4.69-3.26,7.89-8.17,6.59
		c-3.82-1.01-6.15-3.9-5.15-8.31c1.06-4.67,4.32-6.79,8.75-6.75C428.09,549.44,429.05,552.75,428.25,556.91z M443.63,502.1
		c-1.39,5.52-5.29,7.24-10.08,5.9c-4.13-1.15-5.22-4.45-3.79-8.96c1.95-4.21,4.34-8.4,9.73-6.15
		C443.1,494.41,444.66,498.01,443.63,502.1z M488.49,366.26c1.98-4.42,5.28-6.71,9.66-5.5c4.76,1.31,5.87,5.69,4.93,10.26
		c-1.09,5.32-4.79,6.58-9.23,5.04C489.56,374.57,487.14,371.58,488.49,366.26z M489.51,426.88c-1.55,4.77-4.53,8.84-9.88,7
		c-5.08-1.75-6.07-6.37-4.87-11.69c2.02-5.07,5.5-7.78,10.48-5.9C489.68,417.96,491.01,422.29,489.51,426.88z M469.44,331.8
		c1.15-4.74,4.54-6.57,8.7-6.62c4.54,1.22,5.41,4.56,4.55,8.71c-0.98,4.75-3.49,7.77-8.31,6.37
		C470.61,339.17,468.36,336.23,469.44,331.8z M455.52,387.71c2.31-5.41,5.91-7.9,10.7-6.54c5.35,1.51,6.11,6.26,4.73,11.28
		c-1.33,4.8-4.81,6.69-9.19,5.47C456.8,396.53,454.91,392.68,455.52,387.71z M457.29,446.93c-0.65,5.45-4.38,6.64-8.67,5.67
		c-4.19-0.95-7.1-3.45-6.58-8.87c1.62-5.05,4.93-7.85,9.87-6.66C456.45,438.16,457.82,442.39,457.29,446.93z M437.29,351.39
		c1.99-4.52,5.35-6.72,9.7-5.3c4.53,1.48,5.89,5.82,4.9,10.41c-1.17,5.45-5.19,6.06-9.45,4.78
		C437.86,359.89,436.09,356.48,437.29,351.39z M423.71,407.05c1.75-4.57,5.3-6.12,9.69-5.38c4.63,2.1,5.42,6.44,4.59,10.77
		c-1.07,5.57-5.24,5.99-9.39,4.5C424.32,415.41,421.74,412.21,423.71,407.05z M424.59,467.3c-0.74,5.13-3.94,7.32-8.56,5.75
		c-4.17-1.42-6.82-4.76-5.79-9.65c1.02-4.87,4.64-6.48,9.15-6.09C423.88,458.87,425.25,462.73,424.59,467.3z M404.59,372.51
		c1.29-4.77,4.79-6.58,9.42-6.26c4.58,1.47,5.99,5.35,5.28,10c-0.8,5.33-4.3,7.02-8.86,5.67
		C406.15,380.65,403.14,377.83,404.59,372.51z M390.83,428.74c1.27-5.31,5.05-7.27,10.01-6.58c4.2,2.02,5.76,5.74,5.01,10.3
		c-0.89,5.41-4.67,6.36-8.92,5.27C392.73,436.64,389.6,433.91,390.83,428.74z M377.44,483.83c1.76-5.17,5.77-7.4,10.42-5.45
		c4.1,1.71,5.03,6.08,4.37,10.66c-1.86,5.02-5.47,5.71-9.6,4.31C378.42,491.91,375.71,488.91,377.44,483.83z M365.13,539.69
		c1.46-4.35,4.06-7.42,9.04-6.08c4.62,2.65,5.96,6.84,4.14,11.97c-1.59,4.46-4.89,7.19-9.33,5.78
		C363.34,549.55,363.49,544.55,365.13,539.69z M365.4,581.44c4.4,1.15,8.74,3.38,6.85,9.65c-1.37,4.54-5.03,6.62-9.37,5.64
		c-4.89-1.11-7.2-4.8-7.11-9.65C357.56,581.31,361.3,580.36,365.4,581.44z M347.73,643.46c1.41-4.46,4.41-7.37,8.99-5.97
		c4.39,1.34,5.89,5.19,5.42,9.96c-1.74,4.79-5.27,6.42-9.46,5.57C347.94,652.07,346.19,648.37,347.73,643.46z M345.7,693.94
		c4.51,0.89,6.22,4.68,6.08,9.58c-1.28,4.92-4.71,6.69-8.96,6.19c-4.75-0.56-6.91-3.92-5.69-9.02
		C338.23,696.1,341.12,693.03,345.7,693.94z M327.07,609.88c0.24-4.65,2.67-7.09,6.91-6.01c3.93,1,7.38,3.1,7.53,8.4
		c-1.15,4.58-4.16,5.71-8.04,4.99C329.68,616.56,326.82,614.63,327.07,609.88z M316.91,664.75c1.07-4.14,3.74-6.44,7.84-5.18
		c4.32,1.33,6.17,4.8,5.99,9.72c-1.19,4.62-4.36,5.33-8.12,4.49C318.14,672.78,315.56,669.99,316.91,664.75z M290.28,845.93
		c-4.9-0.82-6.06-4.77-5.35-9.47c0.72-4.76,3.59-8.19,7.9-7.59c5.18,0.72,6.16,5.74,6.31,10.6
		C297.7,844.29,294.71,846.68,290.28,845.93z M308.54,782.57c-0.81,4.28-3.34,6.76-7.39,5.98c-3.99-0.77-8.08-2.93-7.4-8.07
		c0.69-5.27,4.8-7.38,9.5-7.59C308,774.3,309.44,777.77,308.54,782.57z M310.98,732.24c-4.89-0.99-6.26-4.95-5.03-9.83
		c1.19-4.72,3.89-7.77,8.76-6.08c4.36,1.51,6.01,5.28,5.66,10.17C318.82,731.46,315.24,733.1,310.98,732.24z M329.29,815.58
		c-1.41,4.26-4.23,5.78-8.18,4.76c-3.49-0.9-5.38-3.44-4.3-7.28c1.3-4.6,4.35-7.22,8.94-5.57
		C329.12,808.71,329.93,811.92,329.29,815.58z M331.18,766.48c-4.76-1.97-5.42-6.02-4.26-10.57c1.27-4.99,4.59-7.12,9.11-5.29
		c4.28,1.73,6.22,5.79,4.83,10.42C339.46,765.76,335.48,766.91,331.18,766.48z M351.68,851.23c-1.74,4.79-5.27,6.42-9.46,5.57
		c-4.74-0.96-6.48-4.66-4.94-9.56c1.41-4.46,4.41-7.37,8.99-5.97C350.65,842.61,352.15,846.46,351.68,851.23z M354.1,798.38
		c-3.75-0.77-6.87-2.55-6.09-7.53c0.68-4.36,3.5-6.8,7.46-6.41c4.72,0.46,6.5,4.2,6.77,8.71
		C361.09,798.21,357.97,799.18,354.1,798.38z M363.76,743.69c-4.75-0.5-6.97-3.81-5.81-8.93c1.05-4.63,3.94-7.66,8.51-6.86
		c4.57,0.8,6.12,4.71,6.29,9.06C371.44,742.36,368.01,744.13,363.76,743.69z M368.87,676.54c0.66-3.92,3.16-5.71,6.68-4.77
		c3.94,1.06,7.88,3.08,7.5,8.3c-0.34,4.77-3.98,5.6-7.14,5.33C370.82,684.33,367.97,681.91,368.87,676.54z"/>
	<path class="st0" d="M143.81,808.31c-1.93,3.21-5.01,4.23-8.52,3.5c-4.74-0.98-6.46-4.72-4.89-9.59c1.42-4.42,4.43-7.38,9.01-5.95
		c1.29,0.4,2.32,1.03,3.12,1.83c-0.27-7.66,0.84-16.07,3.34-25.23l5.86-18.09c-1.46,0.75-3.26,0.96-5.26,0.72
		c-4.91-1.94-6.68-5.86-5.48-11.09c1.06-4.61,4.27-5.6,8.08-4.04c2.46,1.01,4.79,2.33,5.85,4.56l40.89-126.26
		c-3.04-1.34-5.18-3.95-4.99-8.11c0.27-5.74,4.37-8.06,9.36-7.48c0.22,0.03,0.43,0.07,0.64,0.11l13.75-42.44
		c-1.75,0.76-3.85,0.53-6.05-0.15c-3.82-1.18-5.99-3.9-4.46-8.39c1.35-3.97,4.29-5.97,8.15-5.09c2.74,0.63,4.52,2.15,5.35,4.4
		l24.22-74.77c0.02-0.21,0.03-0.41,0.07-0.63c0.24-1.56,0.72-2.83,1.39-3.87l14.7-45.38c-2.22-1.72-3.14-4.31-2.41-7.74
		c1.75-3.66,4.08-5.96,6.95-6.26l13.12-40.5c-0.31-0.06-0.63-0.12-0.97-0.23c-3.74-1.16-5.65-4.52-5.01-8.66
		c0.74-4.84,3.87-7.01,8.39-6.74c0.84,0.27,1.56,0.63,2.16,1.05l0.32-1.1l0.09-0.21c0.22-0.55,0.46-1.08,0.68-1.62l12.18-37.61
		c-1.56,0.49-3.42,0.31-5.38-0.45c-4.25-1.63-6.85-4.79-4.89-9.94c1.75-4.6,5.33-6.09,9.75-5.36c2.13,1.01,3.51,2.45,4.26,4.17
		l33.02-101.96c3.22-9.62,7.33-17.52,12.3-23.73c-0.08-0.73-0.06-1.51,0.05-2.32c0.71-5.09,4.26-6.78,8.42-6.8
		c0.26,0.09,0.5,0.18,0.73,0.28c1.65-1.19,3.36-2.27,5.14-3.19c6.57-3.41,13.21-5.63,19.92-6.66c-0.1-0.83-0.06-1.75,0.12-2.74
		c0.82-4.54,3.47-6.34,7.62-5.69c3.4,1.09,5.4,3.37,4.53,7.35c-0.04,0.18-0.09,0.35-0.13,0.52c1.4,0.08,2.8,0.21,4.21,0.39
		c12.13,1.58,23.2,5.89,33.19,12.92c0.08-0.77,0.26-1.57,0.53-2.37c1.49-4.33,4.04-7.36,8.91-6.42c4.07,2.01,4.43,5.61,3.18,9.55
		c-0.96,3-2.56,5-4.78,5.6c6,5.67,10.1,11.83,12.27,18.5c0.49-1.07,3.08-3.74,7.77-8.04c4.68-4.28,10.85-8.7,18.51-13.26
		c5.54-3.29,11.93-6.24,19.15-8.84c-6.67-9.19-13.63-16.95-20.82-23.17c-11.92-10.3-28.77-16.38-50.1-18.07
		c-12.35-1.12-23.83,0.01-34.16,3.37c-10.48,3.41-19.53,7.57-26.9,12.38c-7.39,4.83-13.41,9.56-17.89,14.06
		c-5.81,5.83-6.8,7.37-6.94,7.62l-4.16,10.09l-3.04-10.69c-2.69-9.08-8.82-17.43-18.21-24.8c-7.14-5.6-14.94-9.61-23.29-11.97
		c0.39,1.37,0.2,2.92-0.56,4.61c-1.8,4.01-4.94,5.45-8.73,3.66c-3.49-1.65-3.73-5.01-2.48-8.44c0.27-0.75,0.59-1.38,0.95-1.92
		c-1.62-0.16-3.24-0.25-4.85-0.25c-9.1,0-18.14,2.53-26.96,7.56c-9.9,5.66-17.7,16.47-23.22,32.15c1.47,2.11,1.78,4.78,1.11,7.69
		c-0.8,3.45-2.68,5.32-5.18,5.55l-11.49,38.94c2.41,1.66,2.75,4.47,1.85,7.86c-0.94,3.52-2.88,5.92-6,6.2l-11.9,40.33
		c0.07,0,0.12-0.01,0.19,0c4.33,1.81,5.07,5.24,4.09,9.39c-0.97,4.15-3.1,6.95-7.47,6.17c-0.47-0.08-0.9-0.2-1.3-0.34l-11.98,40.6
		c0.9-0.24,1.87-0.37,2.91-0.37c5.01,1.56,7.02,5,6.19,9.85c-0.88,5.1-3.7,9.28-8.86,8.65c-2.17-0.26-3.75-1.21-4.82-2.59
		l-12.6,42.68c1.69-1.77,4.1-2.45,6.88-1.94c4.86,0.89,5.81,5.16,5.92,9.71c-1.11,5.52-4.56,6.84-8.99,5.84
		c-3.33-0.75-5.66-2.61-6.17-5.63l-39.99,135.52c0.53,1.45,0.8,3.13,0.82,4.99c-0.62,3.09-2.05,5.01-4.04,5.93l-12.06,40.88
		c3.91,1.32,5.59,4.85,5.57,9.6c-1.1,5.01-4.54,6.83-8.87,6.35c-0.48-0.05-0.92-0.14-1.33-0.25l-12.2,41.34
		c1.93-0.74,4.22-0.76,6.44-0.46c4.58,0.62,7.41,3.57,5.97,8.93c-1.39,5.17-4.82,7.82-10.14,7.39c-2.34-0.99-4.44-2.37-5.69-4.29
		L39.74,776.89c0.8,1.4,1.21,3.14,1.22,5.13c-0.79,3.07-2.3,4.69-4.29,5.28l-2.26,7.65c-3.7,14.91-4.2,28.12-1.43,39.1
		c2.75,10.92,7.47,19.75,14.05,26.24c6.62,6.52,14.62,10.94,23.78,13.13c9.16,2.18,18.48,1.76,27.68-1.24
		c7.39-2.43,14.51-6.6,21.24-12.43c0.02-0.13,0.02-0.25,0.04-0.37c0.72-4.53,2.96-8.02,7.59-7.21c6.85-7.97,12.22-18.27,15.96-30.67
		l2.15-7.29c-0.39-1.15-0.75-2.32-1.09-3.52C144.18,809.89,143.99,809.1,143.81,808.31z M459.32,152.21
		c1.58-4.04,3.43-8.33,8.22-7.49c4.29,0.75,5.06,4.67,4.17,8.83c-1.03,4.81-3.57,7.62-8.42,6.28
		C459.69,158.84,458.56,156.04,459.32,152.21z M407.94,137.42c1.57-4.04,3.43-8.33,8.22-7.49c4.29,0.75,5.06,4.67,4.17,8.83
		c-1.03,4.81-3.57,7.62-8.42,6.28C408.31,144.05,407.18,141.25,407.94,137.42z M144.47,659.48c-1.28,4.58-5.25,6.33-9.45,5.37
		c-4.88-1.12-5.62-5.33-4.68-9.91c0.98-4.72,3.63-7.3,8.07-6.65C143.41,650.46,145.93,654.26,144.47,659.48z M146.55,608.52
		c-5.14-0.86-6.56-4.52-5.92-9.38c0.65-4.96,3.29-8.04,8.15-7.07c4.55,0.91,6.82,4.56,6.34,9.44
		C154.59,606.82,150.73,608.12,146.55,608.52z M165.8,692.37c-1.55,5.1-5.24,7.74-10.2,6.68c-5.19-1.11-7.41-5.06-5.79-10.58
		c1.44-4.91,4.42-8.13,9.45-7.05C163.85,683.76,167.59,686.47,165.8,692.37z M177.06,634.25c-1.2,5.91-5.09,7.46-9.94,6.83
		c-4.25-0.55-8.15-2.67-7.62-7.98c0.65-6.53,5.26-8.37,10.67-7.58C174.63,626.18,177.34,628.93,177.06,634.25z M184.85,578.21
		c-0.7,4.58-2.76,8.39-7.78,7.23c-3.77-0.87-6.06-3.89-5.21-8.39c0.88-4.7,3.68-7.33,8.23-7.5
		C184.31,570.73,185.48,574.1,184.85,578.21z M189.91,519.24c-1.44,5.42-4.55,7.11-9,5.48c-3.55-1.3-6.43-3.84-4.98-8.32
		c1.37-4.22,4.64-7.22,8.95-6.5C189.75,510.71,190.46,514.97,189.91,519.24z M205.69,464.92c-1.96,4.62-5.11,8.29-10.14,6.51
		c-5.12-1.8-5.45-7.14-4.6-12.03c0.85-4.93,3.73-7.81,8.58-5.92C204.19,455.3,206.41,459.18,205.69,464.92z M204.08,404.56
		c2.3-5.28,5.95-7.78,10.65-5.88c4.13,1.67,5.5,6.08,4.35,10.57c-1.33,5.22-5.25,5.77-9.4,4.46
		C205.41,412.36,203.21,409.33,204.08,404.56z M232.98,352.52c-0.45,5.16-3.68,7.62-8.24,6.95c-5.02-0.74-7.66-4.16-7.3-9.84
		c1.61-5.37,4.98-8.16,9.97-7.05C232.06,343.62,233.38,347.94,232.98,352.52z M231.57,292.72c1.37-4.79,4.91-6.45,9.47-6.12
		c4.59,1.57,5.96,5.47,5.2,10.11c-0.88,5.34-4.43,6.92-8.96,5.51C233.02,300.89,230.05,298.05,231.57,292.72z M224.76,498.61
		c-2.34,5.79-6,7.56-10.77,5.89c-4.16-1.45-4.9-4.97-3.23-9.01c1.66-4.02,3.98-7.69,8.78-6.25
		C224.09,490.62,224.97,494.65,224.76,498.61z M238.04,445.09c-1.04,4.98-4.31,7.42-8.91,5.6c-4.85-1.92-6.12-6.41-5.51-11.68
		c1.63-4.72,4.75-7.3,9.21-5.62C237.74,435.23,239.11,439.95,238.04,445.09z M251.79,389.05c-1.34,5.56-5.11,7.72-10.08,5.63
		c-4.43-1.86-7.2-5.3-5.9-10.68c2.45-4.83,5.16-8.72,10.47-6.41C250.87,379.57,253.07,383.74,251.79,389.05z M265.3,332.36
		c-1.96,4.48-4.59,6.67-8.65,5.22c-4.21-1.51-6.86-4.81-5.71-9.72c1.04-4.47,4.58-5.48,8.41-4.36
		C263.68,324.76,266,327.74,265.3,332.36z M310.27,196.64c1.85-4.54,5.7-6.38,9.87-4.6c4.26,1.82,5.07,6.2,4.41,10.84
		c-2.1,5.03-5.86,5.5-9.98,3.97C310.07,205.16,308.31,201.44,310.27,196.64z M311.41,256.89c-2.08,5.04-5.84,5.58-9.98,4.06
		c-4.53-1.67-6.31-5.41-4.37-10.22c1.83-4.56,5.7-6.41,9.89-4.66C311.24,247.86,312.11,252.21,311.41,256.89z M291.26,162.27
		c1.02-4.9,4.71-6.35,8.71-6.26c4.89,1.76,6.31,5.59,5.64,10.16c-0.75,5.11-3.93,7.32-8.56,5.75
		C292.85,170.49,290.24,167.17,291.26,162.27z M277.45,217.66c1.66-4.63,5.22-6.19,9.7-5.51c4.46,1.99,5.75,5.96,4.69,10.53
		c-1.21,5.24-4.94,6.48-9.34,4.85C278.23,225.95,275.59,222.83,277.45,217.66z M278.79,275.89c-0.67,5.35-4.12,7.17-8.73,5.92
		c-4.3-1.17-7.05-3.91-6.2-9.33c1.63-4.62,4.81-7.04,9.25-6.32C278.06,266.97,279.38,271.24,278.79,275.89z M258.77,182.69
		c1.09-4.84,4.68-6.45,9.18-6.01c4.45,1.68,5.86,5.52,5.14,10.09c-0.81,5.11-4.03,7.25-8.64,5.62
		C260.3,190.92,257.66,187.6,258.77,182.69z M258.34,238.96c-0.68,4.01-2.29,7.7-6.87,6.91c-4.71-0.81-6.77-4.41-5.87-9.43
		c0.8-4.44,3.96-5.98,7.23-6.25C257.85,231.37,259.07,234.68,258.34,238.96z M240.24,148.97c1.22-4.2,3.31-8.35,8.09-7.62
		c4.36,0.67,4.9,4.66,4.46,8.07c-1.3,5.45-3.7,8.39-8.58,7.08C240.64,155.55,239.15,152.73,240.24,148.97z M225.9,203.28
		c1.48-4.6,4.79-6.4,9.3-5.89c4.17,1.57,4.63,5.06,3.63,9.07c-1.19,4.8-3.92,7.42-8.64,5.64
		C226.44,210.69,224.49,207.64,225.9,203.28z M213.37,257.79c1.4-4.32,3.88-7.56,8.86-6.57c4.04,2.01,4.38,5.57,3.33,9.61
		c-1.1,4.25-3.59,6.67-7.81,5.63C213.5,265.41,211.97,262.13,213.37,257.79z M199.41,312.91c1.02-4.95,4.55-6.62,8.56-6.38
		c4.94,2,6.47,5.84,5.82,10.47c-0.73,5.21-3.97,7.41-8.64,5.77C200.93,321.28,198.38,317.88,199.41,312.91z M185.11,368.75
		c0.88-4.8,3.57-7.57,8.44-6.93c5.36,1.66,6.54,5.98,5.67,11.2c-0.76,4.57-2.96,8.67-7.8,7.77
		C185.46,379.67,184.04,374.57,185.11,368.75z M170.92,425.34c1.36-4.82,4.34-8.24,9.72-7.18c4.57,2.15,7.2,5.77,5.99,11.17
		c-1.13,5.05-4.04,8.94-9.42,6.78C173,434.42,169.3,431.08,170.92,425.34z M158.94,479.44c1.61-4.52,5.57-6.3,9.72-4.52
		c4.29,1.84,4.88,6.2,4.19,10.76c-1.59,4.08-4.35,6.04-8.31,4.59C159.85,488.56,156.98,484.92,158.94,479.44z M160.14,535.88
		c4.36,1,6.71,4.43,5.62,9.33c-1.03,4.6-4.57,4.98-8.26,4.43c-3.61-1-6.76-2.69-5.87-7.52
		C152.52,537.28,155.69,534.86,160.14,535.88z M139.32,445.47c1.29-4.77,4.78-6.58,9.41-6.26c4.54,1.5,6,5.34,5.29,10.01
		c-0.81,5.33-4.31,7.01-8.86,5.66C140.89,453.6,137.88,450.78,139.32,445.47z M126.65,501.87c1.49-4.04,3.56-8.19,8.51-6.74
		c4.39,1.29,4.09,5.41,3.81,8.23c-1.71,5.91-4.5,8.24-9.19,6.5C126.17,508.52,125.35,505.39,126.65,501.87z M119.71,565.38
		c0.41-4.22,2.33-7.42,6.72-6.6c3.9,0.73,7.67,2.3,7.51,7.94c-1.42,4.3-3.82,7.66-8.33,7.54
		C120.45,574.12,119.25,570.1,119.71,565.38z M107.76,621.1c1.3-4.67,4.14-8.89,9.52-7.48c4.51,1.18,7.84,4.2,7.19,10.09
		c-1.69,5.08-4.86,8.16-9.9,7.18C109.85,629.98,106.1,627.07,107.76,621.1z M97.55,678.27c1.47-5.38,5.52-7.03,10.4-6.69
		c4.44,1.48,7,4.7,5.73,9.64c-1.39,5.43-5.65,7.2-10.44,6.36C98.61,686.77,96.16,683.37,97.55,678.27z M67.56,701.51
		c0.51-4.54,2.46-8.46,7.39-7.89c5.09,0.59,7.28,4.44,7.36,9.95c-1.09,4.88-4.43,6.79-8.64,6.68
		C68.64,710.1,67.02,706.31,67.56,701.51z M61.14,816.83c-0.82,4.89-4.44,5.05-8.13,4.45c-4.48-1.24-6.89-4.08-5.48-9.23
		c1.14-4.16,3.89-6.33,7.94-4.94C59.69,808.55,61.94,812.04,61.14,816.83z M63.23,767.14c-4.3-2.02-9.07-4.25-7.69-10.91
		c1-4.82,4.8-6.7,9.11-5.96c5.59,0.95,8.45,4.89,7.59,11.03C71.5,766.54,67.98,767.96,63.23,767.14z M81.86,852.02
		c-1.32,4.55-5.28,5.83-9.53,5.39c-4.73-1.71-5.58-5.57-4.55-10.14c1.05-4.65,3.65-7.77,8.43-6.21
		C81.07,842.64,83.36,846.85,81.86,852.02z M92.23,792.24c-0.58,5.26-3.81,8.87-8.99,8.37c-5.26-0.5-5.91-4.97-5.23-9.62
		c0.67-4.59,2.63-8.06,7.28-8.33C89.57,784.49,92.76,787.35,92.23,792.24z M95.47,744.23c-5.18-0.63-7.38-4.47-6.84-9.93
		c0.45-4.59,3.11-6.38,7.23-5.75c4.15,1.82,8.46,3.68,7.32,9.79C102.39,742.57,99.26,744.69,95.47,744.23z M112.23,827.68
		c-1.7,5.05-4.01,8.37-8.93,6.52c-3.85-1.44-5.55-4.71-4.22-9.04c1.38-4.51,4.27-7.49,8.91-6.15
		C112.24,820.24,112.44,824.24,112.23,827.68z M123.55,770.96c-2.26,4.41-4.79,8.16-9.42,6.54c-4.41-1.54-5.62-5.84-4.44-10.51
		c1.2-4.75,4.48-5.47,8.32-3.93C121.5,764.45,124.23,766.6,123.55,770.96z M124.35,721.41c-4.81-1.29-5.42-5.6-4.39-10.12
		c1.08-4.74,3.85-7.14,8.21-6.35c4.93,2.37,7.42,6.17,5.77,11.37C132.51,720.83,128.5,722.52,124.35,721.41z"/>
	<path class="st0" d="M691.72,828.66c-0.55,0.21-1.13,0.38-1.74,0.51c-4.9,1.02-7.31-2.28-7.72-7.09c-0.01-0.08-0.01-0.16-0.02-0.24
		c-1.91-1.52-3.78-3.1-5.59-4.74c-5.56-5.03-10.57-10.59-15.04-16.68c-4.64-0.13-6.09-4.14-6.07-8.66c0-0.15,0.01-0.31,0.01-0.46
		c-2.58-4.3-4.92-8.83-7.04-13.59c-1.77-3.97-3.3-8.08-4.62-12.32c-0.7,3.85-3.54,5.71-7.43,6.08c-5.16-0.86-7.61-4.32-7.38-9.7
		c0.2-4.75,3.17-6.4,7.19-5.68c2.13,0.38,4.21,0.99,5.69,2.28c-2.54-10.45-3.81-21.68-3.81-33.7c0-3.66,0.12-7.36,0.36-11.08
		c-0.98,0.37-2.08,0.57-3.3,0.58c-5.29,0.01-8.18-3.38-7.59-9.14c0.53-5.13,2.87-8.92,7.99-8.93c1.67,0.45,3.25,0.97,4.58,1.69
		c1.7-11.42,4.47-23.09,8.32-35.01l11.69-35.95c-3.26-0.65-5.87-2.75-6.44-6.9c-0.78-5.68,2.82-8.84,7.83-9.33
		c1.42-0.14,2.67,0,3.77,0.37l23-70.77c0-0.03,0-0.06,0-0.1c0.1-2.55,0.75-4.97,2.16-6.56l24.59-75.67
		c-0.39-1.35-0.52-2.9-0.42-4.52c0.21-3.68,1.51-6.6,4.33-7.48l23.62-72.66c-0.76-1.23-1.21-2.83-1.36-4.66
		c-0.37-4.41,0.68-8.62,5.35-9.41l3.72-13.25c0.69-3.78,1.06-7.48,1.06-11.08c0-6.2-0.9-11.77-2.68-16.71
		c-0.34,0.07-0.68,0.12-1.03,0.16c-4.58,0.55-7.54-2-8.03-7.35c0.22-2.03,0.8-3.74,1.68-5.11c-6.36-6.91-14.6-10.38-24.73-10.38
		c-16.78,0-33.44,8.04-49.97,24.12c-10.49,10.2-19.53,22.99-27.14,38.37c0.28-0.11,0.58-0.21,0.9-0.3c4.53,0.88,8.17,3,8.53,7.91
		c0.39,5.28-2.13,9.51-7.3,10.13c-4.93,0.59-6.5-3.12-6.82-7.47c-2.53,5.97-4.88,12.26-7.03,18.9l-63.96,198.28l-7.48,25.26
		c4.46,0.21,6.92,3.38,7.81,8.27c-0.17,5.15-3.22,7.67-7.55,8.12c-2.02,0.21-3.61-0.21-4.78-1.12l-14.25,48.13
		c-2.45,8.33-4.45,16.58-6.02,24.74c3.38,0.85,6.26,2.59,6.21,7.27c-0.06,5.13-3.42,7.09-7,7.89c-0.56-0.09-1.09-0.21-1.59-0.35
		c-1.18,9.23-1.79,18.31-1.79,27.17c0,4.33,0.15,8.56,0.43,12.71c0.45-0.12,0.92-0.21,1.44-0.26c4.85-0.44,8.24,2.32,8.9,8.06
		c-0.57,5.54-2.76,9.79-8.08,10.42c1.68,9.12,4.13,17.7,7.35,25.66c6.66,16.45,15.82,30.53,27.22,41.85
		c11.43,11.35,24.95,20.12,40.18,26.08c8.33,3.26,17.01,5.63,25.98,7.13c1.02-1.25,2.54-2.03,4.69-2.04
		c3.06-0.02,5.26,1.25,6.66,3.45c3.87,0.32,7.78,0.49,11.74,0.49c19.64,0,39.35-4.21,58.58-12.51c8.77-3.79,17.38-8.66,25.77-14.54
		c-6.89-1.37-13.61-3.21-20.16-5.54C708.59,838.22,699.8,833.9,691.72,828.66z M668.35,519.73c-5.01,0.22-7.05-3.33-6.86-8.39
		c0.18-4.99,2.45-8.01,6.82-8.24c4.96,1.07,7.87,3.91,7.91,8.84C676.27,517.26,672.66,519.54,668.35,519.73z M729.52,396.47
		c-0.39,4.65-3.82,5.83-7.54,5.76c-3.82-0.07-6.99-1.55-6.85-6.39c0.14-5.02,3.19-7.28,7-7.89
		C727.07,388.85,729.94,391.44,729.52,396.47z M721.79,328.48c5.24,0.16,7.37,4.33,8.08,9.69c-0.67,5.43-3.84,8.5-8.71,8.67
		c-5.07,0.18-6.62-3.98-6.6-8.67C714.6,333.02,716.03,328.3,721.79,328.48z M688.12,308.17c0.2-4.75,3.17-6.4,7.19-5.68
		c4.01,0.72,7.89,2.24,7.78,7.62c-0.1,5.01-3.17,7.35-7.59,7.77C690.33,317.02,687.89,313.55,688.12,308.17z M688.18,367.1
		c0.6-4.64,3.01-8.18,7.76-7.75c4.55,0.41,6.67,3.92,7.07,8.66c-0.84,5.1-4.05,7.4-8.3,7.45
		C689.89,375.52,687.52,372.21,688.18,367.1z M702.95,425.5c-0.72,4.93-3.63,7.52-7.89,7.9c-5.04,0.45-6.86-3.27-6.97-8.01
		c-0.11-4.7,1.51-8.68,6.44-8.71C699.59,416.66,702.3,420.12,702.95,425.5z M694.3,474.27c4.91,0.41,8.25,3.17,8.46,8.65
		c0.19,5.05-3.22,7.58-7.39,8.18c-5.02,0.72-7.04-2.89-7.27-7.65C687.86,478.81,689.34,475.11,694.3,474.27z M668.86,461.99
		c-4.75,0.54-7.52-2.26-7.31-7.51c0.19-4.74,2.49-8.38,7.11-8.55c4.59-0.17,6.95,3.21,7.77,8.04
		C676.17,459.09,673.09,461.52,668.86,461.99z M661.6,396.27c0.54-4.72,2.84-8.25,7.63-7.93c4.4,0.3,5.32,4.17,5.73,7.59
		c-0.76,5.31-2.42,9.06-7.58,8.3C663.34,403.64,661.08,400.8,661.6,396.27z M661.5,336.96c0.32-4.91,3.41-6.32,7.45-5.63
		c3.67,0.63,6.74,2.15,6.86,6.57c-1.42,4.81-3.22,9.03-8.06,8.42C663.15,345.75,661.18,341.79,661.5,336.96z M656.19,559.84
		c0.61-4.18,3.13-6.77,7.07-6.72c4.54,0.05,7.02,2.93,7.41,7.97c-0.01,0.08-0.03,0.14-0.04,0.21c1.07,0.34,1.98,0.87,2.75,1.56
		h-3.13c-1.29,3.81-4.5,4.58-8.16,4.26C658.12,566.78,655.51,564.57,656.19,559.84z M647.54,542.27c-0.38,4.05-1.82,7.86-6.34,7.56
		c-4.19-0.28-6.04-3.67-6.12-7.96c-0.08-4.61,2.19-7.07,6.49-7.22C645.91,535.01,647.96,537.7,647.54,542.27z M649.88,484.18
		c-0.42,4.19-3.23,6.75-7.13,6.71c-5.27-0.04-7.8-3.7-7.84-9.07c-0.03-4.63,2.62-6.62,7.01-6.28
		C646.17,476.51,650.51,477.95,649.88,484.18z M634.92,424.62c0.19-4.78,2.17-8.4,7.14-7.89c5.05,0.52,8.06,4.16,7.52,9.54
		c-0.48,4.74-4.12,6.84-8.37,7.31C636.27,432.92,634.73,429.32,634.92,424.62z M635.81,581.94c4.36,0.26,6.12,3.32,6.24,7.49
		c0.14,4.64-1.19,8.82-6.32,8.74c-3.85-0.05-6.65-2.52-6.63-7.12C629.12,586.26,631.38,583.07,635.81,581.94z M614.53,446.57
		c4.36,0.9,8.91,1.87,8.82,8.11c-0.06,4.29-2.76,7.03-6.58,7.33c-5.2,0.41-8.03-2.9-8.42-8.37
		C608.02,449.04,610.3,446.7,614.53,446.57z M581.26,582.83c3.96-0.12,7.93,0.62,8.8,6.18c-0.61,4.52-2.36,8.32-6.8,9.17
		c-5.08,0.97-6.99-2.72-7.39-7.45C575.5,586.5,576.81,582.96,581.26,582.83z M547.48,676.2c0.29-5.83,4.96-7.55,9.53-7.92
		c4.61-0.37,7.91,1.92,7.47,7.49c-0.42,5.37-3.31,8.7-8.6,9.41C551.26,684.3,547.19,681.94,547.48,676.2z M564.17,734.2
		c-0.19,5.02-3.12,7.61-7.27,8.39c-4.96,0.93-7.23-2.44-7.57-7.26c-0.32-4.56,0.88-8.82,5.82-9.32
		C560.25,725.5,563.1,728.82,564.17,734.2z M556.96,800.6c-4.58-1.07-9.66-2.24-9.52-9.06c0.11-4.94,3.5-7.59,7.86-7.79
		c5.66-0.26,9.17,3,9.43,9.2C564.96,798.25,561.76,800.39,556.96,800.6z M582.62,829.16c-5.25,0.63-6.69-3.61-6.86-8.32
		c-0.17-4.64,1.12-8.47,5.63-9.72c4.53,0.88,8.17,3,8.53,7.91C590.31,824.31,587.79,828.54,582.62,829.16z M584.42,771.27
		c-5.19,0.49-8.05-2.81-8.51-8.28c-0.39-4.59,1.9-6.92,6.05-7.18c4.4,0.9,8.96,1.81,8.95,8.04
		C590.91,768.16,588.22,770.91,584.42,771.27z M590.9,705.6c-0.38,5.62-4.24,8.26-9.09,8.46c-4.7,0.19-7.71-2.62-7.27-7.92
		c0.47-5.59,4.14-8.07,8.99-8.77C588.15,697.88,591.24,700.48,590.9,705.6z M582.66,656.07c-4.79,0.11-8.99-1.95-8.45-8.15
		c0.43-4.86,2.45-9.6,7.98-9.36c4.64,0.2,8.45,2.45,8.88,8.36C590.33,652.26,587.79,655.95,582.66,656.07z M588.35,546.13
		c-3.37,0.12-6.15-1.41-6.15-5.58c0.01-4.92,2.44-8.13,7.13-8.12c3.62,0.01,5.17,2.91,5.57,6.57
		C594.68,543.51,592.4,545.99,588.35,546.13z M608.36,857.81c-4.04-0.59-6.29-3.43-5.77-7.96c0.54-4.72,2.84-8.25,7.63-7.93
		c4.4,0.3,5.32,4.17,5.73,7.59C615.18,854.83,613.52,858.57,608.36,857.81z M608.73,799.91c-4.6-0.58-6.57-4.53-6.25-9.36
		c0.32-4.91,3.41-6.32,7.45-5.63c3.67,0.63,6.74,2.15,6.86,6.57C615.37,796.29,613.56,800.51,608.73,799.91z M617.1,735.69
		c-0.59,4.74-4.21,7.25-8.48,7.04c-4.95-0.24-6.32-4.33-6.13-8.99c0.2-4.88,2.48-7.82,6.9-7.98
		C614.65,727.04,617.78,730.23,617.1,735.69z M609.19,610.69c4.62-0.08,7.51,3.02,7.92,7.91c0.45,5.33-3.1,7.43-7.13,8.7
		c-5.2,0.25-7.25-3.03-7.5-7.94C602.22,614.37,604.25,610.78,609.19,610.69z M617.15,677.71c-0.43,4.76-4,7.33-8.3,7.28
		c-4.98-0.06-6.48-4.03-6.38-8.72c0.1-4.84,2.24-7.93,6.71-8.24C614.48,669.1,617.64,672.29,617.15,677.71z M617.11,562.86
		c-0.87,3.28-3.84,4.16-7.05,4.38c-3.72-0.21-7.12-1.19-7.12-6.12c0-4.94,2.68-7.99,7.22-7.94c4.46,0.05,7.38,2.91,7.19,7.95
		c0,0.08-0.01,0.15-0.02,0.22c1.28,0.3,2.41,0.79,3.33,1.51H617.11z M623.35,512.85c-0.3,4.17-3.05,6.85-6.98,6.92
		c-5.27,0.1-7.87-3.45-8.04-8.85c-0.15-4.64,2.46-6.66,6.48-6.6C619.4,505.28,623.79,506.65,623.35,512.85z M636.21,638.94
		c4.5-0.31,7.65,1.81,8.33,7.09c-0.1,6.05-3.65,8.4-8.52,8.82c-4.26,0.37-8.48-0.88-8.91-6.2
		C626.57,642.11,630.75,639.32,636.21,638.94z M635.69,829.04c-4.82,0.05-7.19-3.25-6.53-8.36c0.6-4.64,3.01-8.18,7.76-7.75
		c4.55,0.41,6.67,3.92,7.07,8.66C643.15,826.69,639.94,829,635.69,829.04z M670.49,850.05c-0.39,4.65-3.82,5.83-7.54,5.76
		c-3.82-0.07-6.99-1.55-6.85-6.39c0.14-5.02,3.19-7.28,7-7.89C668.05,842.43,670.92,845.02,670.49,850.05z M723.49,849.47
		c0.5,5.44-3.14,7.38-7.29,8.5c-4.94,0.04-7.44-2.73-7.42-7.92c0.02-4.81,1.71-8.73,6.8-8.64
		C720.17,841.48,723.05,844.63,723.49,849.47z"/>
	<path d="M297.04,171.91c4.64,1.57,7.81-0.63,8.56-5.75c0.67-4.58-0.75-8.4-5.64-10.16c-4-0.08-7.7,1.36-8.71,6.26
		C290.24,167.17,292.85,170.49,297.04,171.91z"/>
	<path d="M244.21,156.51c4.88,1.31,7.28-1.63,8.58-7.08c0.44-3.42-0.1-7.41-4.46-8.07c-4.77-0.73-6.87,3.42-8.09,7.62
		C239.15,152.73,240.64,155.55,244.21,156.51z"/>
	<path d="M384.52,152.85c-4.16-0.65-6.8,1.15-7.62,5.69c-0.18,0.99-0.22,1.91-0.12,2.74c4.02-0.62,8.07-0.8,12.14-0.56
		c0.05-0.17,0.09-0.34,0.13-0.52C389.92,156.23,387.92,153.94,384.52,152.85z"/>
	<path d="M282.5,227.52c4.4,1.63,8.13,0.39,9.34-4.85c1.05-4.57-0.23-8.55-4.69-10.53c-4.48-0.68-8.04,0.88-9.7,5.51
		C275.59,222.83,278.23,225.95,282.5,227.52z"/>
	<path d="M221.6,172.62c0.67-2.91,0.36-5.58-1.11-7.69c-0.54,1.54-1.07,3.11-1.57,4.74l-2.51,8.5
		C218.92,177.94,220.8,176.07,221.6,172.62z"/>
	<path d="M277.05,135.83c3.79,1.79,6.93,0.35,8.73-3.66c0.76-1.69,0.94-3.24,0.56-4.61c-2.82-0.8-5.7-1.41-8.64-1.83
		c-0.73-0.1-1.45-0.19-2.18-0.26c-0.36,0.54-0.68,1.17-0.95,1.92C273.32,130.82,273.56,134.18,277.05,135.83z"/>
	<path d="M438.94,174.79c1.25-3.94,0.89-7.54-3.18-9.55c-4.87-0.94-7.42,2.09-8.91,6.42c-0.28,0.8-0.46,1.6-0.53,2.37
		c0.16,0.12,0.33,0.22,0.49,0.34c2.71,1.94,5.15,3.95,7.35,6.02C436.37,179.8,437.98,177.8,438.94,174.79z"/>
	<path d="M314.58,206.85c4.12,1.54,7.88,1.07,9.98-3.97c0.66-4.64-0.15-9.01-4.41-10.84c-4.17-1.78-8.02,0.06-9.87,4.6
		C308.31,201.44,310.07,205.16,314.58,206.85z"/>
	<path d="M463.29,159.83c4.86,1.34,7.4-1.47,8.42-6.28c0.89-4.16,0.12-8.09-4.17-8.83c-4.79-0.84-6.64,3.45-8.22,7.49
		C458.56,156.04,459.69,158.84,463.29,159.83z"/>
	<path d="M411.9,145.04c4.86,1.34,7.4-1.47,8.42-6.28c0.89-4.16,0.12-8.09-4.17-8.83c-4.79-0.84-6.64,3.45-8.22,7.49
		C407.18,141.25,408.31,144.05,411.9,145.04z"/>
	<path d="M342.56,177.66c-0.11,0.82-0.13,1.59-0.05,2.32c2.79-3.49,5.86-6.43,9.21-8.85c-0.23-0.1-0.47-0.19-0.73-0.28
		C346.82,170.88,343.27,172.57,342.56,177.66z"/>
	<path d="M264.45,192.39c4.61,1.63,7.83-0.5,8.64-5.62c0.72-4.57-0.69-8.4-5.14-10.09c-4.49-0.45-8.08,1.17-9.18,6.01
		C257.66,187.6,260.3,190.92,264.45,192.39z"/>
	<path d="M230.18,212.1c4.73,1.78,7.45-0.84,8.64-5.64c1-4.02,0.54-7.5-3.63-9.07c-4.5-0.5-7.81,1.3-9.3,5.89
		C224.49,207.64,226.44,210.69,230.18,212.1z"/>
	<path d="M470.93,472.36c-4.39-1.22-7.66,1.11-9.89,6.04c-0.91,4.65,1.2,7.81,5.59,9.27c2.77,0.93,5.24,0.79,6.98-0.72l2.54-7.73
		C475.99,476.03,474.48,473.34,470.93,472.36z"/>
	<path d="M241.78,476.76l1.46-4.49c-0.67,1.04-1.15,2.31-1.39,3.87C241.81,476.35,241.8,476.55,241.78,476.76z"/>
	<path d="M199.52,453.48c-4.84-1.89-7.73,0.99-8.58,5.92c-0.85,4.9-0.51,10.23,4.6,12.03c5.03,1.77,8.18-1.9,10.14-6.51
		C206.41,459.18,204.19,455.3,199.52,453.48z"/>
	<path d="M177.21,436.12c5.38,2.16,8.29-1.72,9.42-6.78c1.21-5.41-1.42-9.03-5.99-11.17c-5.38-1.06-8.36,2.36-9.72,7.18
		C169.3,431.08,173,434.42,177.21,436.12z"/>
	<path d="M145.16,454.87c4.56,1.35,8.05-0.33,8.86-5.66c0.71-4.66-0.76-8.51-5.29-10.01c-4.63-0.32-8.12,1.49-9.41,6.26
		C137.88,450.78,140.89,453.6,145.16,454.87z"/>
	<path d="M219.54,489.24c-4.8-1.45-7.11,2.22-8.78,6.25c-1.67,4.04-0.92,7.56,3.23,9.01c4.77,1.67,8.43-0.1,10.77-5.89
		C224.97,494.65,224.09,490.62,219.54,489.24z"/>
	<path d="M368.98,551.35c4.44,1.42,7.74-1.31,9.33-5.78c1.82-5.13,0.48-9.32-4.14-11.97c-4.98-1.34-7.57,1.73-9.04,6.08
		C363.49,544.55,363.34,549.55,368.98,551.35z"/>
	<path d="M129.78,509.86c4.69,1.75,7.48-0.58,9.19-6.5c0.29-2.82,0.58-6.94-3.81-8.23c-4.95-1.45-7.01,2.7-8.51,6.74
		C125.35,505.39,126.17,508.52,129.78,509.86z"/>
	<path d="M164.54,490.28c3.95,1.45,6.72-0.52,8.31-4.59c0.69-4.56,0.1-8.92-4.19-10.76c-4.15-1.78-8.11,0-9.72,4.52
		C156.98,484.92,159.85,488.56,164.54,490.28z"/>
	<path d="M255.52,419.14c-0.73,3.43,0.19,6.02,2.41,7.74l4.54-14C259.6,413.18,257.27,415.47,255.52,419.14z"/>
	<path d="M172.64,345.43c5.16,0.63,7.98-3.55,8.86-8.65c0.84-4.84-1.18-8.29-6.19-9.85c-1.03,0-2,0.12-2.91,0.37l-4.58,15.54
		C168.89,344.23,170.47,345.17,172.64,345.43z"/>
	<path d="M159.04,399.14c4.43,1,7.88-0.32,8.99-5.84c-0.11-4.55-1.07-8.82-5.92-9.71c-2.78-0.51-5.19,0.17-6.88,1.94l-2.36,7.99
		C153.38,396.53,155.71,398.39,159.04,399.14z"/>
	<path d="M410.23,463.4c-1.03,4.89,1.62,8.23,5.79,9.65c4.62,1.57,7.82-0.62,8.56-5.75c0.66-4.56-0.71-8.42-5.21-9.99
		C414.87,456.92,411.25,458.53,410.23,463.4z"/>
	<path d="M219.09,409.25c1.14-4.49-0.22-8.91-4.35-10.57c-4.7-1.9-8.35,0.6-10.65,5.88c-0.87,4.78,1.33,7.8,5.61,9.15
		C213.84,415.02,217.76,414.47,219.09,409.25z"/>
	<path d="M191.41,380.78c4.85,0.9,7.04-3.2,7.8-7.77c0.87-5.22-0.31-9.54-5.67-11.2c-4.87-0.64-7.56,2.13-8.44,6.93
		C184.04,374.57,185.46,379.67,191.41,380.78z"/>
	<path d="M259.34,323.49c-3.82-1.12-7.37-0.11-8.41,4.36c-1.14,4.91,1.51,8.22,5.71,9.72c4.05,1.45,6.69-0.74,8.65-5.22
		C266,327.74,263.68,324.76,259.34,323.49z"/>
	<path d="M391.46,568.96c-4.41-0.15-7.71,1.8-8.94,6.46c-1.18,4.43,1.08,7.39,4.81,8.53c4.77,1.44,7.35-1.46,8.37-6.24
		C396.58,573.56,395.77,570.22,391.46,568.96z"/>
	<path d="M184.88,509.89c-4.31-0.72-7.58,2.28-8.95,6.5c-1.45,4.48,1.43,7.03,4.98,8.32c4.45,1.63,7.57-0.06,9-5.48
		C190.46,514.97,189.75,510.71,184.88,509.89z"/>
	<path d="M345.58,565.3c1.41-4.61-1.17-7.53-4.44-9.94l-4.65,14.34C340.52,571.19,344.1,570.11,345.58,565.3z"/>
	<path d="M435.04,590.06c-1.22,3.65-0.73,6.56,2.01,8.11l4.68-14.25C438.11,583.35,436.57,586.93,435.04,590.06z"/>
	<path d="M439.48,492.9c-5.39-2.25-7.78,1.93-9.73,6.15c-1.42,4.51-0.33,7.81,3.79,8.96c4.79,1.33,8.69-0.39,10.08-5.9
		C444.66,498.01,443.1,494.41,439.48,492.9z"/>
	<path d="M382.63,493.34c4.13,1.4,7.73,0.72,9.6-4.31c0.67-4.58-0.26-8.95-4.37-10.66c-4.65-1.95-8.67,0.28-10.42,5.45
		C375.71,488.91,378.42,491.91,382.63,493.34z"/>
	<path d="M423.69,548.44c-4.43-0.05-7.69,2.08-8.75,6.75c-1.01,4.42,1.33,7.3,5.15,8.31c4.91,1.3,7.26-1.9,8.17-6.59
		C429.05,552.75,428.09,549.44,423.69,548.44z"/>
	<path d="M411.25,521.96c0.71-4.09-1.04-7.62-4.84-8.78c-5.52-1.69-7.56,2.84-9.48,7.19c-0.96,4.48,0.54,7.47,4.71,8.3
		C406.62,529.65,410.29,527.52,411.25,521.96z"/>
	<path d="M232.83,433.39c-4.47-1.68-7.58,0.91-9.21,5.62c-0.61,5.27,0.65,9.76,5.51,11.68c4.6,1.82,7.87-0.62,8.91-5.6
		C239.11,439.95,237.74,435.23,232.83,433.39z"/>
	<path d="M442.03,443.73c-0.52,5.42,2.39,7.92,6.58,8.87c4.3,0.97,8.03-0.22,8.67-5.67c0.54-4.54-0.84-8.76-5.39-9.86
		C446.97,435.88,443.66,438.68,442.03,443.73z"/>
	<path d="M357.83,507.76c0.33-1.7,0.52-3.38,0.3-4.85l-3.15,9.74C356.24,511.63,357.18,509.95,357.83,507.76z"/>
	<path d="M448.42,534.86c-1.08,4.2,0.04,7.46,4.21,8.5c0.81,0.2,1.58,0.29,2.33,0.32l4.84-14.73c-0.49-0.34-1.01-0.64-1.6-0.86
		C452.79,526.04,450.45,530.3,448.42,534.86z"/>
	<path d="M205.14,322.76c4.67,1.64,7.91-0.56,8.64-5.77c0.65-4.63-0.88-8.47-5.82-10.47c-4.01-0.24-7.53,1.43-8.56,6.38
		C198.38,317.88,200.93,321.28,205.14,322.76z"/>
	<path d="M474.38,340.27c4.82,1.4,7.33-1.62,8.31-6.37c0.86-4.16-0.01-7.5-4.55-8.71c-4.16,0.04-7.55,1.87-8.7,6.62
		C468.36,336.23,470.61,339.17,474.38,340.27z"/>
	<path d="M465.5,300.81c0.09-0.37,0.15-0.73,0.2-1.09c-3.44,1.51-6.88,3.33-10.3,5.49c0.26,0.1,0.54,0.19,0.82,0.27
		C460.37,306.71,464.27,306.06,465.5,300.81z"/>
	<path d="M263.86,272.48c-0.85,5.41,1.89,8.16,6.2,9.33c4.61,1.25,8.06-0.57,8.73-5.92c0.58-4.65-0.73-8.92-5.68-9.73
		C268.68,265.44,265.5,267.86,263.86,272.48z"/>
	<path d="M217.75,266.46c4.22,1.04,6.71-1.39,7.81-5.63c1.05-4.04,0.71-7.6-3.33-9.61c-4.98-0.98-7.47,2.25-8.86,6.57
		C211.97,262.13,213.5,265.41,217.75,266.46z"/>
	<path d="M206.78,224.96c0.9-3.38,0.56-6.2-1.85-7.86l-4.15,14.06C203.9,230.88,205.84,228.48,206.78,224.96z"/>
	<path d="M501.97,310.23c-1.39,5.86,0.08,10.77,5.82,12.36c3.86,1.07,6.97-0.92,8.52-4.54c-0.2-0.89-0.42-1.76-0.67-2.59
		c-1.39-4.7-3.27-8.57-5.64-11.59C505.47,303.11,503.03,305.74,501.97,310.23z"/>
	<path d="M245.61,236.44c-0.9,5.02,1.15,8.61,5.87,9.43c4.57,0.79,6.19-2.91,6.87-6.91c0.72-4.27-0.49-7.58-5.51-8.76
		C249.56,230.46,246.41,232,245.61,236.44z"/>
	<path d="M297.06,250.73c-1.93,4.81-0.15,8.55,4.37,10.22c4.14,1.52,7.9,0.98,9.98-4.06c0.7-4.68-0.17-9.03-4.47-10.82
		C302.75,244.32,298.89,246.17,297.06,250.73z"/>
	<path d="M474.76,422.19c-1.19,5.32-0.2,9.95,4.87,11.69c5.35,1.84,8.32-2.24,9.88-7c1.5-4.59,0.17-8.92-4.27-10.59
		C480.26,414.41,476.78,417.12,474.76,422.19z"/>
	<path d="M269.6,363.48c-0.64,4.14,1.27,7.5,5.01,8.66c0.34,0.11,0.66,0.17,0.97,0.23l3.1-9.56l1.48-5.01
		c-0.6-0.43-1.32-0.78-2.16-1.05C273.48,356.48,270.35,358.64,269.6,363.48z"/>
	<path d="M227.41,342.58c-4.99-1.11-8.36,1.68-9.97,7.05c-0.36,5.67,2.29,9.1,7.3,9.84c4.55,0.67,7.78-1.79,8.24-6.95
		C233.38,347.94,232.06,343.62,227.41,342.58z"/>
	<path d="M428.59,416.95c4.16,1.49,8.32,1.07,9.39-4.5c0.84-4.34,0.04-8.68-4.59-10.77c-4.39-0.74-7.94,0.81-9.69,5.38
		C421.74,412.21,424.32,415.41,428.59,416.95z"/>
	<path d="M246.28,377.58c-5.31-2.3-8.03,1.59-10.47,6.41c-1.3,5.38,1.47,8.82,5.9,10.68c4.97,2.09,8.74-0.07,10.08-5.63
		C253.07,383.74,250.87,379.57,246.28,377.58z"/>
	<path d="M396.94,437.72c4.25,1.1,8.02,0.14,8.92-5.27c0.75-4.56-0.81-8.28-5.01-10.3c-4.96-0.69-8.74,1.27-10.01,6.58
		C389.6,433.91,392.73,436.64,396.94,437.72z"/>
	<path d="M442.45,361.27c4.26,1.28,8.28,0.67,9.45-4.78c0.99-4.59-0.37-8.93-4.9-10.41c-4.35-1.42-7.71,0.78-9.7,5.3
		C436.09,356.48,437.86,359.89,442.45,361.27z"/>
	<path d="M292.92,301.51c-4.42-0.72-8,0.77-9.75,5.36c-1.96,5.16,0.64,8.32,4.89,9.94c1.96,0.75,3.81,0.94,5.38,0.45l3.75-11.58
		C296.43,303.96,295.04,302.51,292.92,301.51z"/>
	<path d="M493.86,376.06c4.44,1.54,8.14,0.28,9.23-5.04c0.93-4.58-0.17-8.95-4.93-10.26c-4.38-1.2-7.68,1.08-9.66,5.5
		C487.14,371.58,489.56,374.57,493.86,376.06z"/>
	<path d="M237.28,302.22c4.53,1.41,8.08-0.17,8.96-5.51c0.76-4.64-0.61-8.54-5.2-10.11c-4.56-0.33-8.1,1.33-9.47,6.12
		C230.05,298.05,233.02,300.89,237.28,302.22z"/>
	<path d="M193.16,280.88c0.97-4.16,0.24-7.58-4.09-9.39c-0.07,0-0.13,0.01-0.19,0l-4.49,15.22c0.41,0.14,0.84,0.25,1.3,0.34
		C190.06,287.83,192.19,285.03,193.16,280.88z"/>
	<path d="M410.43,381.92c4.56,1.35,8.06-0.33,8.86-5.67c0.7-4.65-0.71-8.53-5.28-10c-4.63-0.32-8.13,1.49-9.42,6.26
		C403.14,377.83,406.15,380.65,410.43,381.92z"/>
	<path d="M461.77,397.91c4.38,1.22,7.86-0.66,9.19-5.47c1.38-5.02,0.63-9.77-4.73-11.28c-4.8-1.35-8.39,1.13-10.7,6.54
		C454.91,392.68,456.8,396.53,461.77,397.91z"/>
	<path d="M741.28,368.5c0.15,1.83,0.6,3.43,1.36,4.66l0.29-0.88l3.71-13.19C741.96,359.88,740.91,364.09,741.28,368.5z"/>
	<path d="M668.31,503.1c-4.37,0.23-6.64,3.26-6.82,8.24c-0.18,5.06,1.85,8.62,6.86,8.39c4.31-0.19,7.92-2.47,7.87-7.8
		C676.17,507.01,673.27,504.17,668.31,503.1z"/>
	<path d="M619.24,214.95c1.39,2.09,2.76,4.24,4.12,6.46c0.06-0.07,0.12-0.14,0.18-0.2C623.53,217.66,621.83,215.64,619.24,214.95z"
		/>
	<path d="M641.22,184.97c-5.53-0.24-7.55,4.51-7.98,9.36c-0.55,6.2,3.66,8.26,8.45,8.15c0.44-0.01,0.85-0.06,1.26-0.12
		c1.95-1.6,3.93-3.15,5.95-4.65c0.59-1.27,0.98-2.75,1.21-4.38C649.66,187.42,645.85,185.17,641.22,184.97z"/>
	<path d="M642.27,144.59c4.44-0.85,6.19-4.65,6.8-9.17c-0.87-5.56-4.84-6.3-8.8-6.18c-4.45,0.13-5.76,3.68-5.4,7.9
		C635.29,141.88,637.19,145.56,642.27,144.59z"/>
	<path d="M615.64,173.35c4.33-0.45,7.38-2.97,7.55-8.12c-0.9-4.95-3.41-8.14-7.98-8.28c-5.1-0.15-6.84,3.73-6.87,8.54
		C608.3,170.62,610.69,173.86,615.64,173.35z"/>
	<path d="M561.76,158.11c-3.47-0.46-6.04,1.19-6.31,5.32c-0.05,0.73-0.03,1.41,0.04,2.03c4.66,1.02,9.04,2.3,13.13,3.81
		c0.79-0.88,1.31-2.13,1.32-3.96C569.96,159.74,565.74,158.64,561.76,158.11z"/>
	<path d="M588.32,144.53c4.34,0.01,7.55-2.37,8.32-7.54c-0.08-0.88-0.23-1.7-0.44-2.47c-4.71,1.4-9.45,3.01-14.23,4.84
		C582.6,142.46,584.61,144.53,588.32,144.53z"/>
	<path d="M712.78,166.3c0.1,0.72,0.26,1.38,0.48,1.98c4.88-1.24,9.72-2.26,14.5-3.09c-2.58-2.84-5.28-5.54-8.11-8.1
		C715.16,157.89,712.06,160.99,712.78,166.3z"/>
	<path d="M747.71,318.2c0.35-0.04,0.69-0.1,1.03-0.16c-1.6-4.45-3.91-8.4-6.95-11.83c-0.14-0.16-0.29-0.31-0.44-0.47
		c-0.88,1.37-1.45,3.08-1.68,5.11C740.18,316.2,743.13,318.75,747.71,318.2z"/>
	<path d="M669,173.72c4.02-1.28,7.57-3.38,7.13-8.7c-0.41-4.89-3.3-7.98-7.92-7.91c-4.93,0.08-6.96,3.67-6.71,8.67
		C661.75,170.69,663.81,173.97,669,173.72z"/>
	<path d="M667.38,404.23c5.16,0.76,6.83-2.98,7.58-8.3c-0.41-3.42-1.33-7.29-5.73-7.59c-4.79-0.32-7.09,3.21-7.63,7.93
		C661.08,400.8,663.34,403.64,667.38,404.23z"/>
	<path d="M667.75,346.32c4.83,0.6,6.64-3.62,8.06-8.42c-0.12-4.42-3.19-5.94-6.86-6.57c-4.04-0.69-7.12,0.72-7.45,5.63
		C661.18,341.79,663.15,345.75,667.75,346.32z"/>
	<path d="M668.65,445.92c-4.62,0.18-6.91,3.81-7.11,8.55c-0.21,5.25,2.56,8.05,7.31,7.51c4.23-0.48,7.31-2.9,7.56-8.03
		C675.6,449.13,673.24,445.75,668.65,445.92z"/>
	<path d="M694.75,144.58c2.26,0.03,3.78-0.77,4.76-2.07c-2.68-1.53-5.43-2.97-8.26-4.31c-1.03-0.48-2.06-0.95-3.1-1.4
		c-0.01,0.22-0.03,0.43-0.03,0.66C688.1,142.06,690.9,144.53,694.75,144.58z"/>
	<path d="M641.92,475.55c-4.38-0.34-7.04,1.65-7.01,6.28c0.04,5.38,2.57,9.03,7.84,9.07c3.9,0.03,6.71-2.53,7.13-6.71
		C650.51,477.95,646.17,476.51,641.92,475.55z"/>
	<path d="M641.21,433.59c4.25-0.47,7.9-2.57,8.37-7.31c0.54-5.38-2.47-9.02-7.52-9.54c-4.97-0.51-6.95,3.1-7.14,7.89
		C634.73,429.32,636.27,432.92,641.21,433.59z"/>
	<path d="M641.64,375.58c5.17-0.62,7.69-4.85,7.3-10.13c-0.36-4.9-4-7.03-8.53-7.91c-0.32,0.09-0.61,0.19-0.9,0.3
		c-1.63,3.3-3.19,6.72-4.69,10.26C635.14,372.46,636.71,376.17,641.64,375.58z"/>
	<path d="M616.78,462c3.82-0.3,6.52-3.04,6.58-7.33c0.09-6.23-4.46-7.21-8.82-8.11c-4.23,0.14-6.51,2.48-6.18,7.07
		C608.75,459.1,611.58,462.42,616.78,462z"/>
	<path d="M695.36,491.1c4.18-0.6,7.58-3.13,7.39-8.18c-0.21-5.48-3.55-8.24-8.46-8.65c-4.96,0.84-6.44,4.54-6.21,9.18
		C688.33,488.21,690.34,491.82,695.36,491.1z"/>
	<path d="M614.82,504.32c-4.02-0.06-6.63,1.95-6.48,6.6c0.17,5.4,2.77,8.95,8.04,8.85c3.92-0.07,6.68-2.75,6.98-6.92
		C623.79,506.65,619.4,505.28,614.82,504.32z"/>
	<path d="M714.7,453.3c-0.09,1.62,0.03,3.17,0.42,4.52l3.9-12C716.21,446.7,714.9,449.62,714.7,453.3z"/>
	<path d="M722.12,387.95c-3.81,0.61-6.85,2.87-7,7.89c-0.14,4.84,3.03,6.32,6.85,6.39c3.72,0.07,7.15-1.11,7.54-5.76
		C729.94,391.44,727.07,388.85,722.12,387.95z"/>
	<path d="M694.53,416.68c-4.92,0.03-6.55,4.01-6.44,8.71c0.11,4.74,1.93,8.46,6.97,8.01c4.25-0.38,7.16-2.97,7.89-7.9
		C702.3,420.12,699.59,416.66,694.53,416.68z"/>
	<path d="M721.16,346.84c4.87-0.17,8.05-3.24,8.71-8.67c-0.71-5.36-2.84-9.53-8.08-9.69c-5.76-0.18-7.2,4.54-7.23,9.69
		C714.54,342.85,716.09,347.01,721.16,346.84z"/>
	<path d="M694.71,375.46c4.25-0.05,7.46-2.36,8.3-7.45c-0.4-4.74-2.52-8.25-7.07-8.66c-4.75-0.43-7.16,3.11-7.76,7.75
		C687.52,372.21,689.89,375.52,694.71,375.46z"/>
	<path d="M695.5,317.87c4.42-0.42,7.49-2.76,7.59-7.77c0.11-5.38-3.77-6.91-7.78-7.62c-4.02-0.72-6.98,0.94-7.19,5.68
		C687.89,313.55,690.33,317.02,695.5,317.87z"/>
	<path d="M641.57,534.65c-4.3,0.15-6.57,2.61-6.49,7.22c0.08,4.29,1.93,7.68,6.12,7.96c4.52,0.3,5.96-3.51,6.34-7.56
		C647.96,537.7,645.91,535.01,641.57,534.65z"/>
	<path d="M589.33,532.43c-4.69-0.02-7.12,3.19-7.13,8.12c-0.01,4.17,2.77,5.7,6.15,5.58c4.05-0.14,6.33-2.62,6.55-7.13
		C594.5,535.34,592.95,532.44,589.33,532.43z"/>
	<path d="M688.36,540.15l2.16-6.66c-1.41,1.59-2.06,4.01-2.16,6.56C688.36,540.09,688.36,540.12,688.36,540.15z"/>
	<path d="M840.09,706.02c-0.01,0.3-0.01,0.6,0,0.89c2.21-2.95,4.4-6.08,6.56-9.38C842.39,697.97,840.27,701.45,840.09,706.02z"/>
	<path d="M845.96,640.51c-3.62-0.18-5.75,2.11-5.69,6.1c0.09,5.46,3.32,7.22,8.5,7.19c3.15-0.42,6.57-2,6.04-6.75
		C854.24,641.85,850.01,640.71,845.96,640.51z"/>
	<path d="M867.04,618.3c-0.22,4.93,2.9,6.44,6.85,6.68c1.92-0.09,3.8-0.37,5.18-1.28c-0.44-4.5-1.42-8.66-2.61-12.36
		c-0.83-0.27-1.75-0.41-2.76-0.39C869.66,611.02,867.24,613.97,867.04,618.3z"/>
	<path d="M793.57,713.56c4.34-0.06,7.55-2.43,8.17-7.62c-0.54-4.88-2.84-8.21-7.39-8.77c-5.08-0.62-7.18,2.95-7.49,7.83
		C786.54,710.04,788.6,713.63,793.57,713.56z"/>
	<path d="M847.8,598.2c4.59-0.95,7.4-3.95,6.96-8.86c-0.48-5.36-4.82-6.45-8.86-6.57c-4.41-0.13-6.31,2.92-5.81,7.48
		C840.62,595.11,843.14,597.98,847.8,598.2z"/>
	<path d="M820.14,627c4.26-0.06,7.43-2.42,8.27-7.48c-0.39-4.78-2.56-8.23-7.11-8.61c-4.74-0.39-7.16,3.09-7.73,7.77
		C812.94,623.82,815.32,627.07,820.14,627z"/>
	<path d="M813.49,733.37c-0.02,0.31-0.03,0.62-0.04,0.93c3.02-2.31,6.06-4.9,9.13-7.79c-0.36-0.11-0.72-0.2-1.11-0.27
		C816.69,725.41,813.83,728.21,813.49,733.37z"/>
	<path d="M801.55,591.21c-1.85,1.42-3.73,3-5.55,4.73C798.79,595.59,800.83,594.21,801.55,591.21z"/>
	<path d="M820.7,668.61c-4.66,0.09-6.93,3.71-7.18,8.45c-0.27,5.26,2.45,8.09,7.21,7.63c4.25-0.41,7.3-2.88,7.66-7.98
		C827.64,671.87,825.28,668.52,820.7,668.61z"/>
	<path d="M794.42,653.76c3.83,0.02,6.81-1.35,7.15-6.13c-0.71-4.85-3.16-7.87-7.63-8.25c-4.25-0.36-6.45,2.47-6.75,6.76
		C786.82,651.55,789.85,653.73,794.42,653.76z"/>
	<path d="M689.97,829.17c0.61-0.13,1.19-0.3,1.74-0.51c-3.28-2.12-6.43-4.4-9.47-6.83c0.01,0.08,0.01,0.16,0.02,0.24
		C682.66,826.89,685.07,830.19,689.97,829.17z"/>
	<path d="M555.16,726.01c-4.94,0.49-6.14,4.76-5.82,9.32c0.34,4.82,2.61,8.19,7.57,7.26c4.15-0.78,7.08-3.37,7.27-8.39
		C563.1,728.82,560.25,725.5,555.16,726.01z"/>
	<path d="M555.87,685.18c5.29-0.71,8.18-4.04,8.6-9.41c0.44-5.57-2.86-7.86-7.47-7.49c-4.58,0.37-9.24,2.08-9.53,7.92
		C547.19,681.94,551.26,684.3,555.87,685.18z"/>
	<path d="M555.3,783.75c-4.36,0.2-7.75,2.85-7.86,7.79c-0.15,6.82,4.94,7.99,9.52,9.06c4.8-0.21,8-2.35,7.78-7.65
		C564.47,786.75,560.95,783.49,555.3,783.75z"/>
	<path d="M582.19,638.55c-5.53-0.24-7.55,4.51-7.98,9.36c-0.55,6.2,3.66,8.26,8.45,8.15c5.12-0.11,7.67-3.8,8.41-9.15
		C590.64,641,586.83,638.75,582.19,638.55z"/>
	<path d="M583.25,598.17c4.44-0.85,6.19-4.65,6.8-9.17c-0.87-5.56-4.84-6.3-8.8-6.18c-4.45,0.13-5.76,3.68-5.4,7.9
		C576.27,595.46,578.17,599.14,583.25,598.17z"/>
	<path d="M556.62,626.93c4.33-0.45,7.38-2.97,7.55-8.12c-0.89-4.88-3.35-8.05-7.81-8.27l-4.52,15.27
		C553.01,626.72,554.6,627.14,556.62,626.93z"/>
	<path d="M537.77,705.95c0.05-4.68-2.83-6.42-6.21-7.27c-0.96,4.98-1.75,9.91-2.38,14.8c0.5,0.14,1.03,0.26,1.59,0.35
		C534.35,713.04,537.71,711.08,537.77,705.95z"/>
	<path d="M538.17,761.16c-0.66-5.74-4.05-8.5-8.9-8.06c-0.52,0.05-0.99,0.14-1.44,0.26c0.43,6.29,1.18,12.37,2.26,18.22
		C535.4,770.95,537.6,766.7,538.17,761.16z"/>
	<path d="M609.39,725.76c-4.42,0.15-6.71,3.1-6.9,7.98c-0.19,4.65,1.18,8.75,6.13,8.99c4.27,0.2,7.9-2.3,8.48-7.04
		C617.78,730.23,614.65,727.04,609.39,725.76z"/>
	<path d="M662.08,567.12c3.67,0.32,6.87-0.45,8.16-4.26h3.13c-0.76-0.69-1.67-1.22-2.75-1.56c0.01-0.07,0.03-0.14,0.04-0.21
		c-0.4-5.04-2.87-7.92-7.41-7.97c-3.94-0.04-6.46,2.54-7.07,6.72C655.51,564.57,658.12,566.78,662.08,567.12z"/>
	<path d="M661.59,610.55c-5,0.5-8.6,3.65-7.83,9.33c0.57,4.15,3.18,6.26,6.44,6.9l5.16-15.87
		C664.26,610.55,663.01,610.41,661.59,610.55z"/>
	<path d="M609.98,627.3c4.02-1.28,7.57-3.38,7.13-8.7c-0.41-4.89-3.3-7.98-7.92-7.91c-4.93,0.08-6.96,3.67-6.71,8.67
		C602.73,624.27,604.78,627.55,609.98,627.3z"/>
	<path d="M610.21,841.92c-4.79-0.32-7.09,3.21-7.63,7.93c-0.52,4.53,1.74,7.37,5.77,7.96c5.16,0.76,6.83-2.98,7.58-8.3
		C615.53,846.1,614.61,842.22,610.21,841.92z"/>
	<path d="M609.93,784.91c-4.04-0.69-7.12,0.72-7.45,5.63c-0.32,4.83,1.65,8.79,6.25,9.36c4.83,0.6,6.64-3.62,8.06-8.42
		C616.67,787.07,613.6,785.54,609.93,784.91z"/>
	<path d="M609.19,668.04c-4.48,0.31-6.61,3.4-6.71,8.24c-0.1,4.69,1.39,8.66,6.38,8.72c4.29,0.05,7.87-2.52,8.3-7.28
		C617.64,672.29,614.48,669.1,609.19,668.04z"/>
	<path d="M636.02,654.85c4.87-0.42,8.41-2.77,8.52-8.82c-0.68-5.28-3.83-7.39-8.33-7.09c-5.46,0.37-9.64,3.17-9.1,9.7
		C627.55,653.96,631.76,655.22,636.02,654.85z"/>
	<path d="M617.36,561.13c0.19-5.04-2.74-7.9-7.19-7.95c-4.54-0.05-7.22,3-7.22,7.94c0,4.93,3.39,5.9,7.12,6.12
		c3.21-0.22,6.18-1.09,7.05-4.38h3.56c-0.92-0.72-2.05-1.21-3.33-1.51C617.35,561.27,617.36,561.2,617.36,561.13z"/>
	<path d="M635.73,598.17c5.13,0.07,6.46-4.11,6.32-8.74c-0.12-4.17-1.88-7.22-6.24-7.49c-4.43,1.14-6.69,4.32-6.71,9.11
		C629.08,595.64,631.88,598.11,635.73,598.17z"/>
	<path d="M581.39,811.12c-4.52,1.25-5.81,5.08-5.63,9.72c0.17,4.7,1.62,8.94,6.86,8.32c5.17-0.62,7.69-4.85,7.3-10.13
		C589.56,814.13,585.92,812,581.39,811.12z"/>
	<path d="M581.97,755.81c-4.15,0.27-6.44,2.59-6.05,7.18c0.46,5.46,3.31,8.76,8.51,8.28c3.8-0.36,6.49-3.11,6.49-7.42
		C590.93,757.61,586.36,756.7,581.97,755.81z"/>
	<path d="M583.53,697.37c-4.85,0.7-8.52,3.19-8.99,8.77c-0.44,5.3,2.57,8.1,7.27,7.92c4.85-0.19,8.7-2.84,9.09-8.46
		C591.24,700.48,588.15,697.88,583.53,697.37z"/>
	<path d="M770.5,682.57c3.99-0.33,6.62-2.46,6.39-8.02c-1.07-3.37-3.26-6.28-7.42-5.99c-0.34,0.02-0.67,0.07-0.99,0.12l-4.12,12.49
		C765.89,682.55,768.18,682.76,770.5,682.57z"/>
	<path d="M769.93,726.23c-4.78-0.8-7.65,2.03-7.98,7.21c-0.3,4.74,1.15,8.55,6.17,9.44c4.35-0.46,8-2.49,8.49-7.46
		C777.1,730.56,774.46,726.98,769.93,726.23z"/>
	<path d="M663.1,841.53c-3.81,0.61-6.85,2.87-7,7.89c-0.14,4.84,3.03,6.32,6.85,6.39c3.72,0.07,7.15-1.11,7.54-5.76
		C670.92,845.02,668.05,842.43,663.1,841.53z"/>
	<path d="M627.63,705c-0.59,5.76,2.3,9.16,7.59,9.14c1.21,0,2.31-0.21,3.3-0.58c0.33-5.21,0.89-10.48,1.69-15.81
		c-1.34-0.72-2.91-1.24-4.58-1.69C630.49,696.08,628.15,699.87,627.63,705z"/>
	<path d="M635.51,870.26c-2.15,0.01-3.67,0.78-4.69,2.04c3.74,0.62,7.52,1.09,11.35,1.41C640.77,871.52,638.57,870.25,635.51,870.26
		z"/>
	<path d="M661.61,800.41c-2.14-2.92-4.17-5.96-6.06-9.12c0,0.15-0.01,0.31-0.01,0.46C655.52,796.26,656.97,800.28,661.61,800.41z"/>
	<path d="M636.92,812.93c-4.75-0.43-7.16,3.11-7.76,7.75c-0.66,5.11,1.71,8.42,6.53,8.36c4.25-0.05,7.46-2.36,8.3-7.45
		C643.58,816.85,641.47,813.34,636.92,812.93z"/>
	<path d="M629.1,761.75c-0.23,5.38,2.21,8.85,7.38,9.7c3.89-0.37,6.73-2.23,7.43-6.08c-0.71-2.3-1.35-4.65-1.93-7.03
		c-1.48-1.29-3.56-1.9-5.69-2.28C632.27,755.35,629.3,757.01,629.1,761.75z"/>
	<path d="M708.78,850.05c-0.02,5.19,2.48,7.96,7.42,7.92c4.15-1.12,7.79-3.06,7.29-8.5c-0.45-4.84-3.33-7.98-7.91-8.06
		C710.5,841.32,708.8,845.24,708.78,850.05z"/>
	<path d="M418.52,592.84c-4.09-1.32-7.07-0.08-8.12,4.42c-1.18,5.03-0.61,9.74,5.05,10.87c4.37,0.87,7.74-1.57,8.99-6.15
		C425.9,596.56,422.1,594.59,418.52,592.84z"/>
	<path d="M366.47,727.89c-4.57-0.8-7.46,2.24-8.51,6.86c-1.16,5.12,1.06,8.43,5.81,8.93c4.25,0.45,7.68-1.33,9-6.74
		C372.59,732.61,371.03,728.69,366.47,727.89z"/>
	<path d="M383.05,680.07c0.38-5.22-3.56-7.23-7.5-8.3c-3.52-0.95-6.02,0.84-6.68,4.77c-0.9,5.37,1.95,7.79,7.04,8.86
		C379.07,685.67,382.71,684.84,383.05,680.07z"/>
	<path d="M368.62,825.67c-0.35,3.44,0.9,5.97,3.36,7.28c1.67-3.8,3.16-7.86,4.45-12.17c-0.4-0.12-0.83-0.22-1.29-0.28
		C371.51,819.96,369.02,821.71,368.62,825.67z"/>
	<path d="M408.1,648.7c-3.98-0.79-6.88,1.58-7.86,5.79c-1.11,4.79,1.68,6.93,5.51,8.01c3.72,0.64,7.44,0.53,8.31-4.38
		C414.92,653.24,412.64,649.6,408.1,648.7z"/>
	<path d="M379.29,768.14c-0.31,1.86-0.07,3.28,0.55,4.36c0.64-2.25,1.36-4.53,2.18-6.87l1.08-3.28
		C381.13,763.31,379.76,765.32,379.29,768.14z"/>
	<path d="M320.37,726.5c0.35-4.9-1.3-8.66-5.66-10.17c-4.87-1.69-7.57,1.36-8.76,6.08c-1.23,4.87,0.15,8.84,5.03,9.83
		C315.24,733.1,318.82,731.46,320.37,726.5z"/>
	<path d="M303.24,772.9c-4.71,0.21-8.81,2.32-9.5,7.59c-0.68,5.14,3.41,7.29,7.4,8.07c4.05,0.79,6.58-1.69,7.39-5.98
		C309.44,777.77,308,774.3,303.24,772.9z"/>
	<path d="M385.93,615.14c-4.3-1.07-6.71,1.51-7.05,6.09c-0.36,4.88,1.6,8.23,6.12,9.44c4.67,0.04,7.97-2.3,8.42-7.2
		C393.92,618.11,389.87,616.13,385.93,615.14z"/>
	<path d="M352.67,653.03c4.19,0.85,7.72-0.78,9.46-5.57c0.48-4.77-1.03-8.62-5.42-9.96c-4.58-1.4-7.58,1.51-8.99,5.97
		C346.19,648.37,347.94,652.07,352.67,653.03z"/>
	<path d="M362.88,596.72c4.34,0.99,8-1.09,9.37-5.64c1.89-6.26-2.45-8.49-6.85-9.65c-4.09-1.07-7.83-0.13-9.63,5.63
		C355.68,591.92,357.99,595.61,362.88,596.72z"/>
	<path d="M397.5,707.66c-3.23-1.14-6.3-0.68-7.6,3.21c-1.41,4.21,0.1,7.53,3.9,9.24c1.07,0.48,2.07,0.69,2.99,0.62l3.67-11.17
		C399.77,708.77,398.81,708.12,397.5,707.66z"/>
	<path d="M325.75,807.49c-4.58-1.66-7.63,0.96-8.94,5.57c-1.09,3.84,0.81,6.37,4.3,7.28c3.95,1.02,6.77-0.49,8.18-4.76
		C329.93,811.92,329.12,808.71,325.75,807.49z"/>
	<path d="M340.87,761.03c1.38-4.63-0.55-8.69-4.83-10.42c-4.53-1.83-7.84,0.3-9.11,5.29c-1.16,4.56-0.5,8.6,4.26,10.57
		C335.48,766.91,339.46,765.76,340.87,761.03z"/>
	<path d="M292.83,828.88c-4.3-0.6-7.18,2.83-7.9,7.59c-0.71,4.7,0.46,8.65,5.35,9.47c4.43,0.74,7.42-1.64,8.85-6.46
		C298.98,834.62,298,829.6,292.83,828.88z"/>
	<path d="M313.58,864.38c-3.32-1.17-6.13-0.06-7.12,3.94c-0.47,1.9-0.45,3.48,0.03,4.8c4.54,0.76,9.13,0.93,13.75,0.5
		c0.03-0.15,0.08-0.29,0.1-0.45C321.31,867.75,317.4,865.73,313.58,864.38z"/>
	<path d="M333.46,617.26c3.88,0.73,6.89-0.41,8.04-4.99c-0.14-5.3-3.59-7.4-7.53-8.4c-4.24-1.08-6.67,1.36-6.91,6.01
		C326.82,614.63,329.68,616.56,333.46,617.26z"/>
	<path d="M355.47,784.45c-3.96-0.38-6.77,2.05-7.46,6.41c-0.78,4.97,2.35,6.75,6.09,7.53c3.87,0.8,6.99-0.18,8.13-5.22
		C361.96,788.64,360.19,784.9,355.47,784.45z"/>
	<path d="M346.26,841.27c-4.58-1.4-7.58,1.51-8.99,5.97c-1.54,4.9,0.2,8.6,4.94,9.56c4.19,0.85,7.72-0.78,9.46-5.57
		C352.15,846.46,350.65,842.61,346.26,841.27z"/>
	<path d="M337.14,700.69c-1.22,5.1,0.94,8.46,5.69,9.02c4.25,0.5,7.68-1.27,8.96-6.19c0.13-4.9-1.57-8.69-6.08-9.58
		C341.12,693.03,338.23,696.1,337.14,700.69z"/>
	<path d="M322.63,673.78c3.75,0.84,6.93,0.13,8.12-4.49c0.18-4.91-1.67-8.39-5.99-9.72c-4.1-1.26-6.78,1.04-7.84,5.18
		C315.56,669.99,318.14,672.78,322.63,673.78z"/>
	<path d="M113.7,534.03c-0.02-1.86-0.29-3.54-0.82-4.99l-3.22,10.92C111.65,539.04,113.08,537.12,113.7,534.03z"/>
	<path d="M73.67,710.24c4.21,0.12,7.55-1.79,8.64-6.68c-0.07-5.5-2.27-9.36-7.36-9.95c-4.94-0.57-6.88,3.36-7.39,7.89
		C67.02,706.31,68.64,710.1,73.67,710.24z"/>
	<path d="M83.04,653.74c5.32,0.43,8.75-2.22,10.14-7.39c1.44-5.37-1.39-8.31-5.97-8.93c-2.22-0.3-4.52-0.29-6.44,0.46l-3.42,11.58
		C78.6,651.37,80.7,652.75,83.04,653.74z"/>
	<path d="M72.24,761.3c0.86-6.14-1.99-10.08-7.59-11.03c-4.31-0.73-8.12,1.14-9.11,5.96c-1.38,6.65,3.4,8.89,7.69,10.91
		C67.98,767.96,71.5,766.54,72.24,761.3z"/>
	<path d="M114.57,630.9c5.05,0.98,8.21-2.09,9.9-7.18c0.65-5.9-2.68-8.91-7.19-10.09c-5.38-1.41-8.22,2.81-9.52,7.48
		C106.1,627.07,109.85,629.98,114.57,630.9z"/>
	<path d="M125.61,574.26c4.51,0.12,6.91-3.24,8.33-7.54c0.15-5.63-3.61-7.21-7.51-7.94c-4.39-0.82-6.31,2.38-6.72,6.6
		C119.25,570.1,120.45,574.12,125.61,574.26z"/>
	<path d="M103.17,590.42c0.01-4.75-1.66-8.27-5.57-9.6l-4.63,15.7c0.42,0.11,0.86,0.2,1.33,0.25
		C98.62,597.26,102.07,595.43,103.17,590.42z"/>
	<path d="M133.94,716.31c1.65-5.2-0.84-9-5.77-11.37c-4.36-0.79-7.14,1.61-8.21,6.35c-1.03,4.52-0.42,8.83,4.39,10.12
		C128.5,722.52,132.51,720.83,133.94,716.31z"/>
	<path d="M212.21,547.14c-3.85-0.88-6.8,1.12-8.15,5.09c-1.53,4.49,0.64,7.21,4.46,8.39c2.2,0.68,4.3,0.9,6.05,0.15l2.99-9.23
		C216.73,549.28,214.95,547.76,212.21,547.14z"/>
	<path d="M190.83,610.58c-0.19,4.16,1.95,6.76,4.99,8.11l5.01-15.48c-0.21-0.04-0.42-0.08-0.64-0.11
		C195.19,602.52,191.09,604.84,190.83,610.58z"/>
	<path d="M155.11,601.5c0.48-4.88-1.79-8.53-6.34-9.44c-4.85-0.97-7.49,2.12-8.15,7.07c-0.64,4.86,0.78,8.52,5.92,9.38
		C150.73,608.12,154.59,606.82,155.11,601.5z"/>
	<path d="M107.98,819.01c-4.64-1.34-7.53,1.64-8.91,6.15c-1.33,4.33,0.37,7.59,4.22,9.04c4.92,1.85,7.23-1.47,8.93-6.52
		C112.44,824.24,112.24,820.24,107.98,819.01z"/>
	<path d="M118.01,763.05c-3.84-1.54-7.11-0.82-8.32,3.93c-1.18,4.67,0.03,8.97,4.44,10.51c4.63,1.62,7.17-2.13,9.42-6.54
		C124.23,766.6,121.5,764.45,118.01,763.05z"/>
	<path d="M138.42,648.29c-4.44-0.65-7.09,1.92-8.07,6.65c-0.95,4.58-0.2,8.79,4.68,9.91c4.2,0.96,8.17-0.79,9.45-5.37
		C145.93,654.26,143.41,650.46,138.42,648.29z"/>
	<path d="M170.16,625.52c-5.42-0.8-10.02,1.05-10.67,7.58c-0.53,5.31,3.37,7.44,7.62,7.98c4.85,0.62,8.75-0.93,9.94-6.83
		C177.34,628.93,174.63,626.18,170.16,625.52z"/>
	<path d="M151.62,542.12c-0.89,4.83,2.26,6.51,5.87,7.52c3.69,0.55,7.23,0.17,8.26-4.43c1.1-4.9-1.25-8.33-5.62-9.33
		C155.69,534.86,152.52,537.28,151.62,542.12z"/>
	<path d="M180.08,569.54c-4.55,0.17-7.34,2.81-8.23,7.5c-0.85,4.5,1.45,7.52,5.21,8.39c5.01,1.16,7.07-2.65,7.78-7.23
		C185.48,574.1,184.31,570.73,180.08,569.54z"/>
	<path d="M40.96,782.02c-0.02-1.99-0.42-3.73-1.22-5.13l-3.07,10.41C38.67,786.7,40.18,785.08,40.96,782.02z"/>
	<path d="M76.21,841.06c-4.78-1.56-7.37,1.56-8.43,6.21c-1.04,4.57-0.18,8.43,4.55,10.14c4.25,0.44,8.21-0.84,9.53-5.39
		C83.36,846.85,81.07,842.64,76.21,841.06z"/>
	<path d="M85.29,782.67c-4.66,0.26-6.61,3.74-7.28,8.33c-0.68,4.65-0.03,9.11,5.23,9.62c5.18,0.5,8.41-3.11,8.99-8.37
		C92.76,787.35,89.57,784.49,85.29,782.67z"/>
	<path d="M103.18,738.34c1.14-6.11-3.18-7.97-7.32-9.79c-4.12-0.62-6.78,1.17-7.23,5.75c-0.54,5.46,1.66,9.3,6.84,9.93
		C99.26,744.69,102.39,742.57,103.18,738.34z"/>
	<path d="M103.25,687.58c4.79,0.84,9.05-0.93,10.44-6.36c1.27-4.94-1.3-8.16-5.73-9.64c-4.88-0.34-8.93,1.31-10.4,6.69
		C96.16,683.37,98.61,686.77,103.25,687.58z"/>
	<path d="M55.47,807.1c-4.05-1.39-6.8,0.78-7.94,4.94c-1.41,5.15,1,8,5.48,9.23c3.69,0.6,7.31,0.45,8.13-4.45
		C61.94,812.04,59.69,808.55,55.47,807.1z"/>
	<path d="M272.79,812.26c3.93,0.7,6.69-1.59,7.65-6.24c0.14-5.18-1.75-9.31-6.8-10.45c-2.55-0.58-4.49,0.26-5.75,1.96
		c-0.65,2.8-1.19,5.52-1.6,8.18C266.83,809.13,268.94,811.58,272.79,812.26z"/>
	<path d="M301.67,690.42c-0.15-1.2-0.45-2.37-0.93-3.42l-2.87,9.57C299.82,695.78,301.18,693.9,301.67,690.42z"/>
	<path d="M290.41,750.04c1.35-4.65-0.59-8.72-4.89-10.43c-0.16-0.06-0.31-0.1-0.47-0.15l-4.75,15.87c0.15,0.07,0.28,0.15,0.44,0.22
		C285.08,756.02,289.02,754.81,290.41,750.04z"/>
	<path d="M159.26,681.41c-5.03-1.08-8.01,2.14-9.45,7.05c-1.62,5.52,0.6,9.47,5.79,10.58c4.96,1.06,8.65-1.58,10.2-6.68
		C167.59,686.47,163.85,683.76,159.26,681.41z"/>
	<path d="M119.78,859.36c-0.02,0.13-0.03,0.25-0.04,0.37c1.69-1.46,3.36-3.03,4.99-4.7c0.9-0.92,1.78-1.89,2.63-2.89
		C122.74,851.34,120.5,854.83,119.78,859.36z"/>
	<path d="M130.4,802.22c-1.57,4.87,0.16,8.62,4.89,9.59c3.51,0.72,6.59-0.29,8.52-3.5c-0.73-3.24-1.15-6.64-1.28-10.21
		c-0.81-0.8-1.84-1.42-3.12-1.83C134.83,794.84,131.82,797.8,130.4,802.22z"/>
	<path d="M149.07,740.39c-3.81-1.56-7.02-0.57-8.08,4.04c-1.2,5.23,0.57,9.14,5.48,11.09c2,0.24,3.8,0.03,5.26-0.72l3.19-9.84
		C153.86,742.72,151.53,741.39,149.07,740.39z"/>
	<path d="M970.54,594.81c-6.92-10.45-15.92-17.14-27.02-20.1c-11.1-2.94-22.46-1.47-34.05,4.42c-11.6,5.9-19.62,16.88-24.06,32.96
		c-0.1,0.3-0.2,0.6-0.3,0.9c-2.29-9.04-6-16.13-8.32-19.99c-7.67-12.72-20.37-17.83-31.78-21.16c-12.04-3.5-24.45-1.75-36.88,5.18
		c-3.42,1.91-7.68,4.58-12.05,8.05l76.76-232.63v0.8c6.41-19.29,9.62-38.85,9.62-58.68c0-18.75-3.09-36.18-9.25-52.25
		c-6.18-16.08-14.81-30.01-25.91-41.8c-11.1-11.78-24.43-21.03-39.98-27.73c-15.55-6.69-32.7-10.05-51.45-10.05
		c-6.1,0-12.29,0.38-18.56,1.11c-0.53-0.64-1.06-1.29-1.61-1.92c-11.42-13.31-25.32-23.89-41.31-31.47
		c-15.99-7.56-33.85-11.39-53.06-11.39c-22.62,0-46.67,5.45-71.48,16.2c-15.57,6.75-29.82,15.82-42.63,27.09
		c-9.5-0.06-18.41,1.13-26.74,3.6c-0.21,0.06-0.4,0.13-0.61,0.19c-7.61-10.85-15.62-19.96-23.96-27.17
		c-13.17-11.38-31.47-18.08-54.35-19.89c-13.29-1.22-25.74,0.03-37.01,3.7c-11.11,3.61-20.76,8.06-28.68,13.23
		c-7.85,5.13-14.3,10.21-19.16,15.09c-1.58,1.59-2.87,2.92-3.91,4.03c-3.81-8.23-10.03-15.76-18.57-22.46
		c-10.61-8.33-22.55-13.48-35.49-15.34c-13.1-1.87-26.1,0.8-38.64,7.96c-12.73,7.27-22.34,21.31-28.58,41.76L26.93,792.54
		c-4.11,16.57-4.61,31.28-1.48,43.73c3.14,12.5,8.64,22.69,16.33,30.28c7.64,7.53,16.84,12.62,27.36,15.13
		c4.41,1.05,8.84,1.57,13.28,1.57c6.12,0,12.24-0.99,18.32-2.98c10.41-3.42,20.28-9.84,29.34-19.08
		c8.88-9.08,15.71-21.2,20.34-36.06c2.53,4.28,5.58,8.02,9.15,11.24c7.16,6.43,15.67,10.71,25.54,12.86
		c9.87,2.13,19.73,1.73,29.61-1.21c9.87-2.95,19.12-8.44,27.76-16.48c6.21-5.79,11.34-12.97,15.38-21.53
		c-0.75,7.55-0.56,14.59,0.58,21.06c2.35,13.4,7.17,24.37,14.34,32.6c7.18,8.23,16.3,13.83,27.12,16.66
		c10.7,2.8,21.69,2.64,32.66-0.46c10.97-3.12,21.26-9.55,30.59-19.12c8.93-9.16,15.79-21.4,20.42-36.38
		c1.97,3.56,4.28,6.77,6.97,9.59c6.66,6.96,15.05,11.66,25.17,14.07c10.11,2.41,20.36,2.27,30.72-0.4
		c10.36-2.69,19.99-8.18,28.87-16.48c8.88-8.3,15.55-19.42,19.99-33.36l25.39-78.72c-0.72,7.3-1.09,14.5-1.09,21.58
		c0,22.3,3.6,42.48,10.7,60c7.1,17.53,16.89,32.57,29.1,44.7c12.19,12.11,26.6,21.46,42.81,27.8c16.15,6.32,33.55,9.52,51.71,9.52
		c20.63,0,41.31-4.41,61.47-13.11c11.78-5.09,23.25-12,34.31-20.61c6.12,0.73,12.37,1.09,18.75,1.09c20.23,0,40.22-3.89,59.96-11.66
		c19.73-7.77,38.37-20.1,55.89-36.98c17.51-16.88,33.92-38.99,49.23-66.32c15.29-27.33,28.62-60.56,39.98-99.68
		C978.43,618.81,977.45,605.26,970.54,594.81z M796,595.94c1.83-1.73,3.7-3.31,5.55-4.73c3.67-2.82,7.24-5.04,10.13-6.65
		c10.66-5.95,21.19-7.47,31.29-4.54c10.49,3.06,21.05,7.31,27.27,17.62c1.7,2.82,4.24,7.61,6.21,13.7c1.19,3.7,2.17,7.86,2.61,12.36
		c0.18,1.87,0.26,3.8,0.24,5.76c-10.25,27.78-21.14,50.46-32.66,68.06c-2.16,3.31-4.35,6.44-6.56,9.38
		c-2.26,3.02-4.55,5.85-6.86,8.49c-3.58,4.09-7.13,7.79-10.65,11.11c-3.07,2.89-6.11,5.48-9.13,7.79
		c-11.91,9.1-23.45,13.66-34.64,13.66c-7.4,0-13.33-2.41-17.77-7.24c-4.44-4.82-6.66-11.25-6.66-19.29c0-3.74,0.49-7.76,1.48-12.06
		c0.98-4.28,2.22-8.84,3.7-13.67l4.79-14.53l4.12-12.49l22.05-66.83C792.24,599.71,794.1,597.74,796,595.94z M572.73,143.12
		c3.09-1.34,6.17-2.59,9.23-3.76c4.78-1.82,9.53-3.43,14.23-4.84c15.56-4.65,30.66-7,45.12-7c16.9,0,32.64,3.12,46.84,9.28
		c1.04,0.45,2.08,0.92,3.1,1.4c2.82,1.34,5.58,2.77,8.26,4.31c7.26,4.16,13.99,9.03,20.14,14.59c2.83,2.55,5.53,5.26,8.11,8.1
		c-4.79,0.83-9.62,1.85-14.5,3.09c-8.96,2.27-18.08,5.24-27.36,8.9c-13.42,5.3-25.76,12.15-37.02,20.52c-2.02,1.5-4,3.05-5.95,4.65
		c-6.9,5.66-13.37,11.93-19.4,18.83c-0.06,0.07-0.12,0.14-0.18,0.2c-1.36-2.21-2.73-4.37-4.12-6.46
		c-9.69-14.62-20.04-26.26-31.05-34.94c-5.58-4.39-12.11-7.97-19.57-10.73c-4.1-1.52-8.47-2.79-13.13-3.81
		c-5.07-1.11-10.48-1.93-16.22-2.46C549.56,154.97,560.74,148.32,572.73,143.12z M143.33,821.47c-3.75,12.41-9.11,22.7-15.96,30.67
		c-0.86,1-1.73,1.96-2.63,2.89c-1.64,1.67-3.3,3.24-4.99,4.7c-6.73,5.83-13.85,10.01-21.24,12.43c-9.2,3.01-18.52,3.42-27.68,1.24
		c-9.16-2.19-17.16-6.61-23.78-13.13c-6.58-6.49-11.31-15.32-14.05-26.24c-2.76-10.97-2.26-24.19,1.43-39.1l2.26-7.65l3.07-10.41
		l37.61-127.44l3.42-11.58l12.2-41.34l4.63-15.7l12.06-40.88l3.22-10.92l39.99-135.52l2.36-7.99l12.6-42.68l4.58-15.54l11.98-40.6
		l4.49-15.22l11.9-40.33l4.15-14.06l11.49-38.94l2.51-8.5c0.5-1.63,1.03-3.2,1.57-4.74c5.52-15.67,13.32-26.49,23.22-32.15
		c8.82-5.03,17.86-7.56,26.96-7.56c1.62,0,3.23,0.09,4.85,0.25c0.73,0.07,1.45,0.15,2.18,0.26c2.94,0.42,5.82,1.03,8.64,1.83
		c8.35,2.36,16.16,6.37,23.29,11.97c9.39,7.38,15.52,15.72,18.21,24.8l3.04,10.69l4.16-10.09c0.14-0.25,1.14-1.79,6.94-7.62
		c4.48-4.49,10.5-9.22,17.89-14.06c7.37-4.81,16.42-8.97,26.9-12.38c10.33-3.36,21.81-4.49,34.16-3.37
		c21.33,1.7,38.18,7.78,50.1,18.07c7.19,6.22,14.15,13.98,20.82,23.17c-7.22,2.6-13.62,5.54-19.15,8.84
		c-7.66,4.56-13.82,8.98-18.51,13.26c-4.7,4.3-7.29,6.97-7.77,8.04c-2.17-6.67-6.27-12.83-12.27-18.5c-2.2-2.07-4.64-4.08-7.35-6.02
		c-0.16-0.12-0.33-0.23-0.49-0.34c-9.99-7.03-21.06-11.34-33.19-12.92c-1.41-0.18-2.81-0.31-4.21-0.39
		c-4.07-0.24-8.12-0.05-12.14,0.56c-6.72,1.03-13.36,3.25-19.92,6.66c-1.78,0.93-3.49,2-5.14,3.19c-3.34,2.41-6.41,5.36-9.21,8.85
		c-4.97,6.21-9.08,14.11-12.3,23.73l-33.02,101.96l-3.75,11.58l-12.18,37.61c-0.23,0.54-0.46,1.08-0.68,1.62l-0.09,0.21l-0.32,1.1
		l-1.48,5.01l-3.1,9.56l-13.12,40.5l-4.54,14l-14.7,45.38l-1.46,4.49l-24.22,74.77l-2.99,9.23l-13.75,42.44l-5.01,15.48
		l-40.89,126.26l-3.19,9.84l-5.86,18.09c-2.5,9.16-3.61,17.57-3.34,25.23c0.13,3.57,0.55,6.97,1.28,10.21
		c0.18,0.79,0.37,1.58,0.58,2.35c0.33,1.2,0.7,2.37,1.09,3.52L143.33,821.47z M376.75,819.75c-0.1,0.35-0.21,0.68-0.31,1.02
		c-1.29,4.31-2.78,8.37-4.45,12.17c-3.79,8.59-8.54,15.85-14.2,21.66c-8.37,8.58-17.52,14.33-27.2,17.09
		c-3.45,0.98-6.9,1.62-10.33,1.94c-4.62,0.43-9.21,0.26-13.75-0.5c-1.6-0.27-3.19-0.6-4.77-1.02c-9.33-2.44-17.16-7.23-23.27-14.25
		c-6.12-7.03-10.27-16.57-12.34-28.35c-1.25-7.09-1.18-15.05,0.19-23.79c0.41-2.65,0.95-5.38,1.6-8.18
		c0.8-3.41,1.76-6.91,2.91-10.53l9.48-31.67l4.75-15.87l12.84-42.89l2.87-9.57l27.41-91.55l8.34-25.75l4.65-14.34l13.83-42.71
		l3.15-9.74l40.92-126.35c10.85-24.12,24.43-43.81,40.71-59.09c5.19-4.86,10.4-8.95,15.63-12.26c3.42-2.17,6.86-3.99,10.3-5.49
		c7.83-3.42,15.72-5.16,23.66-5.16c5.92,0,11.22,1.61,15.92,4.82c1.75,1.2,3.32,2.7,4.72,4.49c2.36,3.02,4.25,6.88,5.64,11.59
		c0.25,0.83,0.46,1.7,0.67,2.59c1.63,7.13,1.91,16.03,0.81,26.75c-0.05,0.5-0.11,1.01-0.17,1.51c-2.74,6.97-5.26,14.33-7.55,22.1
		l-26.71,90.89l-6.55,19.92l-2.54,7.73l-13.8,42l-4.84,14.73l-13.22,40.24l-4.68,14.25l-36.61,111.4l-3.67,11.17l-13.68,41.63
		l-1.08,3.28c-0.82,2.34-1.54,4.62-2.18,6.87c-3.64,12.7-4.52,23.94-2.63,33.73c0.44,2.27,0.99,4.42,1.59,6.51L376.75,819.75z
		 M712.5,861.69c-19.23,8.3-38.94,12.51-58.58,12.51c-3.96,0-7.87-0.17-11.74-0.49c-3.83-0.31-7.62-0.78-11.35-1.41
		c-8.97-1.5-17.65-3.87-25.98-7.13c-15.23-5.96-28.75-14.73-40.18-26.08c-11.41-11.32-20.56-25.41-27.22-41.85
		c-3.23-7.96-5.68-16.54-7.35-25.66c-1.07-5.85-1.83-11.93-2.26-18.22c-0.28-4.15-0.43-8.38-0.43-12.71c0-8.87,0.6-17.94,1.79-27.17
		c0.63-4.89,1.42-9.83,2.38-14.8c1.57-8.15,3.57-16.41,6.02-24.74l14.25-48.13l4.52-15.27l7.48-25.26l63.96-198.28
		c2.15-6.64,4.5-12.93,7.03-18.9c1.5-3.54,3.06-6.96,4.69-10.26c7.61-15.37,16.65-28.17,27.14-38.37
		c16.53-16.08,33.19-24.12,49.97-24.12c10.13,0,18.37,3.47,24.73,10.38c0.15,0.16,0.3,0.31,0.44,0.47
		c3.04,3.43,5.35,7.37,6.95,11.83c1.78,4.94,2.68,10.51,2.68,16.71c0,3.6-0.37,7.3-1.06,11.08l-3.72,13.25l-3.71,13.19l-0.29,0.88
		l-23.62,72.66l-3.9,12l-24.59,75.67l-2.16,6.66l-23,70.77l-5.16,15.87l-11.69,35.95c-3.84,11.92-6.61,23.59-8.32,35.01
		c-0.79,5.32-1.36,10.59-1.69,15.81c-0.24,3.72-0.36,7.41-0.36,11.08c0,12.03,1.27,23.26,3.81,33.7c0.58,2.38,1.22,4.73,1.93,7.03
		c1.31,4.25,2.85,8.36,4.62,12.32c2.11,4.76,4.46,9.28,7.04,13.59c1.89,3.16,3.92,6.2,6.06,9.12c4.47,6.09,9.48,11.66,15.04,16.68
		c1.82,1.64,3.68,3.22,5.59,4.74c3.04,2.43,6.2,4.7,9.47,6.83c8.08,5.24,16.87,9.56,26.39,12.95c6.55,2.33,13.27,4.18,20.16,5.54
		C729.88,853.03,721.27,857.89,712.5,861.69z"/>
</g>
</svg>
