<?xml version="1.0" encoding="utf-8"?>
<!-- Generator: Adobe Illustrator 27.1.1, SVG Export Plug-In . SVG Version: 6.00 Build 0)  -->
<svg version="1.1" id="Layer_1" xmlns="http://www.w3.org/2000/svg" xmlns:xlink="http://www.w3.org/1999/xlink" x="0px" y="0px"
	 viewBox="0 0 1000 560" style="enable-background:new 0 0 1000 560;" xml:space="preserve">
<path id="path5" d="M925.32,362.39c-2.68,0-4.52-1.86-4.52-4.52V225.34h-45.02c-2.68,0-4.52-1.85-4.52-4.52v-18.28
	c0-2.68,1.85-4.53,4.52-4.53h119.84c2.67,0,4.52,1.85,4.52,4.53v18.28c0,2.67-1.84,4.52-4.52,4.52H950.6v132.53
	c0,2.67-1.85,4.52-4.52,4.52L925.32,362.39 M580.45,296.23l-23.63-67.8l-23.84,67.8H580.45z M632.87,357.04
	c1.03,2.68-0.61,5.36-3.49,5.36H608c-3.09,0-4.94-1.43-5.97-4.32l-12.12-34.92h-66.39l-12.14,34.92c-1.02,2.89-2.88,4.32-5.95,4.32
	h-20.14c-2.68,0-4.53-2.68-3.5-5.36l55.7-154.91c1.03-2.89,2.88-4.11,5.96-4.11h27.54c3.09,0,5.14,1.23,6.17,4.11L632.87,357.04
	 M792.53,340.2c13.15,0,21.99-6.36,29.19-17.25l-33.29-35.76c-12.75,7.2-20.98,14.38-20.98,28.77
	C767.45,330.13,778.96,340.2,792.53,340.2 M801.78,219.79c-10.68,0-16.85,6.79-16.85,15.83c0,6.99,3.69,13.15,12.12,22.19
	c14.59-8.43,20.76-13.56,20.76-22.6C817.81,226.78,812.47,219.79,801.78,219.79 M892.84,356.64c2.67,2.88,1.03,5.75-2.27,5.75h-26.1
	c-3.49,0-5.34-0.83-7.6-3.5l-15.62-17.25c-10.48,13.97-25.09,24.45-49.34,24.45c-30.01,0-53.65-18.08-53.65-49.1
	c0-23.84,12.75-36.58,32.08-47.27c-9.46-10.89-13.77-22.4-13.77-32.46c0-25.49,17.88-42.95,44.8-42.95
	c27.54,0,44.4,16.24,44.4,40.27c0,20.55-14.8,32.04-30.42,40.68l23.03,24.87l12.95-22.61c1.64-2.67,3.49-3.7,6.78-3.7h19.93
	c3.29,0,5.14,2.27,3.09,5.76l-23.03,39.44L892.84,356.64 M687.71,362.39c2.67,0,4.53-1.86,4.53-4.52V225.34h45.01
	c2.67,0,4.52-1.85,4.52-4.52v-18.28c0-2.68-1.85-4.53-4.52-4.53H617.41c-2.68,0-4.52,1.85-4.52,4.53v18.28
	c0,2.67,1.85,4.52,4.52,4.52h45.01v132.53c0,2.67,1.86,4.52,4.53,4.52L687.71,362.39L687.71,362.39z"/>
<path id="path9" d="M79.39,442.33c34.86,26.98,78.61,43.2,126.08,43.2c51.95,0,99.31-19.29,135.45-50.95
	c0.44-0.39,0.22-0.64-0.21-0.39c-16.22,10.83-62.45,34.48-135.24,34.48c-63.26,0-103.24-14.11-125.82-26.72
	C79.23,441.74,79.07,442.07,79.39,442.33 M219.44,452.84c50.6,0,106.2-13.79,139.45-41.1c9.1-7.44,17.77-17.34,25.53-30.65
	c4.47-7.66,8.84-16.75,12.4-25.69c0.16-0.44-0.11-0.65-0.44-0.16c-30.92,45.51-120.47,73.89-212.94,73.89
	c-65.36,0-135.68-20.9-163.21-60.81c-0.27-0.37-0.54-0.21-0.38,0.21C45.5,423.06,123.31,452.84,219.44,452.84 M164.15,362.4
	C58.92,362.4,9.3,313.39,0.3,279.94c-0.11-0.48-0.43-0.38-0.43,0.06c0,11.26,1.13,25.79,3.07,35.44c0.92,4.7,4.75,12.06,10.35,17.94
	c25.48,26.56,89.01,63.78,199.04,63.78c149.9,0,184.18-49.93,191.18-66.36c5.01-11.74,7.6-32.97,7.6-50.8
	c0-4.31-0.11-7.76-0.27-11.14c0-0.55-0.32-0.59-0.43-0.06C402.9,308.98,274.83,362.4,164.15,362.4 M19.69,191.83
	c-6.03,11.97-12.71,32.16-14.7,42.61c-0.87,4.48-0.5,6.63,1.07,9.97c12.61,26.76,76.41,69.58,225.23,69.58
	c90.79,0,161.32-22.3,172.74-63.01c2.1-7.49,2.22-15.4-0.49-26.06c-3.02-11.91-8.68-25.8-13.46-35.56
	c-0.16-0.32-0.44-0.27-0.38,0.11c1.78,53.39-147.1,87.79-222.22,87.79c-81.36,0-149.25-32.42-149.25-73.35
	c0-3.93,0.81-7.87,1.83-11.96C20.17,191.56,19.85,191.5,19.69,191.83 M341.26,126.28c0.86,1.35,1.3,2.8,1.3,4.74
	c0,22.84-69.89,63.23-181.15,63.23c-81.75,0-97.05-30.33-97.05-49.61c0-6.89,2.64-13.95,8.47-21.11c0.32-0.43,0.05-0.59-0.32-0.27
	c-10.62,9-20.38,19.13-28.94,30.06c-4.09,5.17-6.63,9.75-6.63,12.49c0,39.97,100.22,68.94,193.92,68.94
	c99.84,0,144.4-32.59,144.4-61.24c0-10.24-3.98-16.21-14.18-27.8c-6.62-7.54-12.88-13.67-19.5-19.71
	C341.26,125.74,341.04,125.96,341.26,126.28 M310.65,103.45c-30.81-18.47-66.6-28.98-105.17-28.98
	c-38.85,0-75.71,10.88-106.63,29.83c-9.28,5.71-14.5,10.28-14.5,16.17c0,17.34,40.51,35.98,112.39,35.98
	c71.13,0,126.3-20.42,126.3-40.07C323.05,111.69,318.95,108.4,310.65,103.45"/>
</svg>
