<?xml version="1.0" encoding="utf-8"?>
<!-- Generator: Adobe Illustrator 27.1.1, SVG Export Plug-In . SVG Version: 6.00 Build 0)  -->
<svg version="1.1" id="Layer_1" xmlns="http://www.w3.org/2000/svg" xmlns:xlink="http://www.w3.org/1999/xlink" x="0px" y="0px"
	 viewBox="0 0 1000 560" style="enable-background:new 0 0 1000 560;" xml:space="preserve">
<path d="M376.1,242.99h42.22l-41.39,129.64h-52.85l-25.1-91.25l-26.43,91.25h-52.19l-41.39-129.64h42.22l25.6,91.25l25.6-91.25
	h52.85l25.6,91.25C351.01,334.4,376.1,242.99,376.1,242.99z M188.45,94.23c1.33-4.65,5.48-11.14,7.31-16.29
	c1.33-4.32,0.83-7.31-0.83-8.14c1.33-14.13-8.48-27.26-22.6-30.25c-15.29-2.99-30.75,6.81-33.74,22.11s6.81,30.25,22.11,33.74
	c2.16,0.5,4.32,0.5,6.48,0.5c0.83,0.5,2.16,0.83,2.49,1.66c1.33,1.33,2.16,5.98,0.83,8.14c-0.83,2.16-6.81,8.48-13.63,15.79
	s-8.98,8.14-14.96,14.96c-2.99,3.49-3.82,7.65-3.82,7.65s-5.48,2.99-9.31,8.48c-3.82,5.15-8.98,15.79-8.98,15.79
	s-4.32,2.49-6.81,4.32c-2.16,2.16-3.82,3.49-7.31,7.65c0-3.82,1.33-5.48,3.82-7.31c1.66-1.33,4.32-7.65,4.65-15.29
	c3.49-1.66,5.98-5.48,5.98-9.81c0-5.98-5.15-11.14-11.14-11.14c-2.49,0-4.65,0.83-6.48,2.16c-4.32-2.16-9.81-2.99-16.29-1.66
	c-2.16,0.5-4.32,1.33-4.65,2.99c-1.33,0.5-3.49,1.33-5.98,5.15c-2.99,4.32-1.66,7.31-2.16,8.48c-0.5,1.33-5.15,3.82-2.99,13.63
	c0.83,3.82,0.5,6.81,0.83,8.14c0.5,1.66,0.83,2.49,2.49,2.99c0.83,0.5,2.16,0.83,2.99,1.33c1.66,0.5,2.16,0.83,2.49,2.49v2.99
	c0,0.5-0.5,1.33-0.83,1.33l-10.64,0.5c-6.48-0.5-9.81,1.66-9.81,1.66s-6.48,0.5-10.64,2.99c-4.32,2.49-9.81,9.31-11.14,15.29
	c-0.83,2.49-1.33,4.32-2.49,6.48c-0.83,1.33-4.65,3.82-7.65,6.81c-1.66-6.48-4.32-14.13-4.32-19.61v-1.33c0-1.66,0-3.49,0.83-5.15
	c1.66-2.49,2.99-5.48,2.49-8.98c0-2.16,0.5-4.65,0.83-6.81c0.5-1.66,0-2.99,0.83-4.32c0.5-0.83,1.33-2.16,1.33-3.49
	c0,0-1.66,0-2.99,0.5c-2.16,0.83-2.49,3.49-3.49,5.15c-0.5,1.33-0.5,2.99-1.33,3.49c-0.83,0.5-2.16,0.5-2.99-0.5
	c-0.83-1.33-1.33-2.16-2.16-3.49c-0.83-1.33-2.99-9.31-5.15-14.13c-0.83-0.83-1.33-2.16-2.49-2.49c-0.83-0.5-2.16,0.5-1.66,1.33
	c0.83,2.49,2.16,5.15,2.49,7.65c-0.83-1.66-2.16-3.49-2.99-4.65c-0.83-0.83-1.66-2.16-2.99-2.49c-0.83-0.5-1.66,0-2.16,0.83
	c-0.5,0.5,0.5,1.33,0.5,1.66c1.66,2.16,3.49,4.65,4.32,7.65c-0.83-0.83-1.66-1.66-2.99-2.16c-0.5,0-1.33,0-1.66,0.5
	c0,0.5,0,1.33,0.5,1.66l3.82,5.15c0.83,1.33,1.66,2.99,2.49,4.32c0-0.83-1.33-0.83-1.33,0.5c0.83,1.66,2.99,2.99,3.49,5.15
	c1.66,4.32,1.33,8.98,0.83,14.13c-0.5,5.15,0.5,20.11-0.83,26.43c-2.16,10.3-1.66,14.13,0.83,25.6c1.33,6.81,8.14,6.81,13.3,3.49
	c8.48-5.48,17.45-18.28,19.61-20.94c1.66-2.16,2.99-5.48,4.32-5.15c2.99,3.49,5.15,17.45,2.49,29.92c-0.5,2.49-1.66,7.31-1.66,8.48
	c0.5,1.33,1.66,2.16,1.66,2.49c-0.5,9.31-6.81,11.14-8.98,20.94c-2.16,9.81-1.33,16.62,0.5,26.43c1.66,9.81,6.48,19.61,10.3,26.93
	c3.82,7.31,4.65,12.3,4.65,12.3l3.49,0.5c0,0,5.15,20.94,15.79,37.06c31.08,46.87,42.22,67.81,44.38,72.47
	c2.16,4.32-0.83,4.32-0.83,6.48c0,2.16,1.66,4.32,6.81,7.65c5.48,3.49,9.81,15.29,11.97,21.77c2.16,6.48,6.48,18.78,15.79,17.45
	s9.31-13.63,7.65-21.27c-2.16-7.65-9.81-11.47-11.14-16.62c-1.33-4.65-6.48-12.8-6.81-22.6c0-1.33,0-2.49,0.5-4.65
	c0.5-5.48,3.49-12.8,3.49-17.12c-0.5-4.32-11.47-11.97-14.13-16.62c-2.49-4.65-4.32-14.46-5.15-14.96c-1.33-0.5-2.49-0.5-2.49-0.5
	s-1.66-32.41-5.98-45.71c-3.49-9.81-11.97-18.28-11.97-18.28s3.82-7.31,8.98-26.09c5.98-22.6-2.99-33.24-5.48-46.04
	c-2.16-10.3,0.5-25.6,6.81-40.55c2.49-5.98,7.31-20.94,7.65-28.59c0-3.49,2.16-5.98,5.48-10.64c3.49-4.65,6.48-9.81,7.65-14.13
	c1.33-4.32,4.65-8.48,9.81-15.79c2.49-3.82,3.82-7.31,3.82-7.31s9.31-9.31,16.29-18.78c8.14-10.64,9.31-17.12,9.81-19.28
	s3.82-4.65,5.48-8.48C185.79,104.87,187.12,98.88,188.45,94.23z M800.27,336.9c0,25.6-21.27,35.9-53.69,35.9H632.56V243.15h102.88
	c35.4,0,55.02,9.31,55.02,34.07c0,14.96-8.48,23.44-18.78,27.26c-0.5,0-0.83,0.5-0.83,0.83s0.5,0.83,0.83,0.83
	C787.8,308.31,800.27,318.61,800.27,336.9L800.27,336.9z M670.96,294.35h64.49c11.14,0,15.29-3.49,15.29-8.48
	c0-6.48-4.65-9.31-15.29-9.31h-64.49V294.35L670.96,294.35z M760.55,330.08c0-5.15-3.82-8.48-14.13-8.48h-75.46v17.95h75.46
	C757.22,339.89,760.55,336.06,760.55,330.08L760.55,330.08z M997.73,372.8h-46.04l-14.96-28.09h-72.47L849.8,372.8h-45.71
	l69.97-129.64h52.52L997.73,372.8z M920.6,313.46l-20.44-38.89l-20.11,38.89H920.6z M561.76,330.91l-73.46-87.43h-54.68v129.64
	h38.39V285.2l72.97,87.43h54.68V242.99h-38.89v87.92H561.76z"/>
</svg>
